<svg xmlns="http://www.w3.org/2000/svg" xmlns:xlink="http://www.w3.org/1999/xlink" width="100" zoomAndPan="magnify" viewBox="0 0 75 74.999997" height="100" preserveAspectRatio="xMidYMid meet" version="1.0"><defs><g/></defs><path stroke-linecap="butt" transform="matrix(0.177761, 0, 0, 0.177761, 14.773418, 30.521267)" fill="none" stroke-linejoin="miter" d="M 7.867076 41.148982 L 7.867076 1.506496 C 7.867076 0.957127 8.152748 0.671455 8.724092 0.671455 L 33.511633 0.671455 C 34.082977 0.671455 34.368649 0.957127 34.368649 1.506496 L 34.390624 2.495361 C 34.390624 3.04473 34.676296 3.330402 35.24764 3.330402 L 36.17058 3.330402 C 36.719949 3.330402 37.005621 3.616074 37.005621 4.165444 L 37.005621 12.471907 C 37.005621 13.021276 36.719949 13.306948 36.17058 13.306948 L 35.20369 13.306948 C 34.632346 13.306948 34.368649 13.59262 34.368649 14.141989 L 34.368649 15.108879 C 34.368649 15.680223 34.082977 15.94392 33.511633 15.94392 L 31.314156 15.94392 C 30.764786 15.94392 30.479114 16.229592 30.479114 16.778962 L 30.479114 17.767826 C 30.479114 18.317196 30.764786 18.602868 31.314156 18.602868 L 34.852094 18.602868 C 35.401463 18.602868 35.687135 18.88854 35.687135 19.437909 L 35.687135 20.404799 C 35.687135 20.976143 35.972807 21.23984 36.522176 21.23984 L 37.489066 21.23984 C 38.06041 21.23984 38.346082 21.525512 38.346082 22.096856 L 38.346082 35.875037 C 38.346082 36.424406 38.06041 36.688103 37.489066 36.688103 L 36.522176 36.688103 C 35.972807 36.688103 35.687135 36.973775 35.687135 37.545119 L 35.687135 38.512009 C 35.687135 39.061378 35.401463 39.34705 34.852094 39.34705 L 33.863229 39.34705 C 33.31386 39.34705 33.028188 39.632722 33.028188 40.182092 L 33.028188 41.148982 C 33.028188 41.720326 32.764491 42.005998 32.193147 42.005998 L 8.724092 42.005998 C 8.152748 42.005998 7.867076 41.720326 7.867076 41.148982 Z M 19.799376 4.165444 L 19.799376 14.933081 C 19.799376 15.504425 20.063073 15.768122 20.634418 15.768122 L 21.601307 15.768122 C 22.150677 15.768122 22.436349 15.504425 22.436349 14.933081 L 22.436349 13.966191 C 22.436349 13.394847 22.722021 13.13115 23.27139 13.13115 L 24.23828 13.13115 C 24.809624 13.13115 25.095296 12.845478 25.095296 12.274134 L 25.095296 6.802416 C 25.095296 6.253047 24.809624 5.967375 24.23828 5.967375 L 23.27139 5.967375 C 22.722021 5.967375 22.436349 5.703678 22.436349 5.132334 L 22.436349 4.165444 C 22.436349 3.616074 22.150677 3.330402 21.601307 3.330402 L 20.634418 3.330402 C 20.063073 3.330402 19.799376 3.616074 19.799376 4.165444 Z M 19.799376 19.569757 L 19.799376 38.46806 C 19.799376 39.017429 20.063073 39.303101 20.634418 39.303101 L 21.601307 39.303101 C 22.150677 39.303101 22.436349 39.017429 22.436349 38.46806 L 22.436349 37.50117 C 22.436349 36.929826 22.722021 36.644154 23.27139 36.644154 L 24.23828 36.644154 C 24.809624 36.644154 25.095296 36.380456 25.095296 35.831087 L 25.095296 22.228705 C 25.095296 21.657361 24.809624 21.371689 24.23828 21.371689 L 23.27139 21.371689 C 22.722021 21.371689 22.436349 21.107991 22.436349 20.536647 L 22.436349 19.569757 C 22.436349 18.998413 22.150677 18.734716 21.601307 18.734716 L 20.634418 18.734716 C 20.063073 18.734716 19.799376 18.998413 19.799376 19.569757 Z M 40.543559 41.148982 L 40.543559 1.506496 C 40.543559 0.957127 40.807256 0.671455 41.3786 0.671455 L 51.618843 0.671455 C 52.168212 0.671455 52.453884 0.957127 52.453884 1.506496 L 52.453884 38.512009 C 52.453884 39.061378 52.739556 39.34705 53.288926 39.34705 L 54.27779 39.34705 C 54.82716 39.34705 55.090857 39.061378 55.090857 38.512009 L 55.090857 33.567686 C 55.090857 33.018317 55.376529 32.732645 55.947873 32.732645 L 56.958712 32.732645 C 57.508082 32.732645 57.793754 32.446973 57.793754 31.897603 L 57.793754 30.908739 C 57.793754 30.359369 58.079426 30.073697 58.628795 30.073697 L 66.188116 30.073697 C 66.737485 30.073697 67.023157 30.359369 67.023157 30.908739 L 67.023157 38.512009 C 67.023157 39.061378 66.737485 39.34705 66.188116 39.34705 L 65.221226 39.34705 C 64.649882 39.34705 64.386185 39.632722 64.386185 40.182092 L 64.386185 41.148982 C 64.386185 41.720326 64.100513 42.005998 63.529169 42.005998 L 41.3786 42.005998 C 40.807256 42.005998 40.543559 41.720326 40.543559 41.148982 Z M 67.462652 41.148982 L 67.462652 12.12031 C 67.462652 11.548966 67.748324 11.263294 68.297694 11.263294 L 69.748028 11.263294 C 70.319372 11.263294 70.605044 10.999597 70.605044 10.428253 L 70.605044 9.461363 C 70.605044 8.890019 70.868742 8.626322 71.440086 8.626322 L 72.406976 8.626322 C 72.956345 8.626322 73.242017 8.34065 73.242017 7.791281 L 73.242017 6.802416 C 73.242017 6.253047 73.527689 5.967375 74.077058 5.967375 L 75.043948 5.967375 C 75.615292 5.967375 75.900964 5.703678 75.900964 5.132334 L 75.900964 4.165444 C 75.900964 3.616074 76.164661 3.330402 76.736005 3.330402 L 77.175501 3.330402 C 77.72487 3.330402 78.010542 3.04473 78.010542 2.495361 L 78.010542 1.506496 C 78.010542 0.957127 78.296214 0.671455 78.845583 0.671455 L 93.107209 0.671455 C 93.656578 0.671455 93.94225 0.957127 93.94225 1.506496 L 93.94225 2.495361 C 93.94225 3.04473 94.227922 3.330402 94.777291 3.330402 L 95.766156 3.330402 C 96.315525 3.330402 96.601197 3.616074 96.601197 4.165444 L 96.601197 41.148982 C 96.601197 41.720326 96.315525 42.005998 95.766156 42.005998 L 85.525913 42.005998 C 84.954569 42.005998 84.668897 41.720326 84.668897 41.148982 L 84.668897 27.129078 C 84.668897 26.557734 84.4052 26.294037 83.833856 26.294037 L 82.866966 26.294037 C 82.295622 26.294037 82.031925 26.557734 82.031925 27.129078 L 82.031925 28.095968 C 82.031925 28.645337 81.746253 28.931009 81.196884 28.931009 L 80.208019 28.931009 C 79.65865 28.931009 79.394952 29.216681 79.394952 29.766051 L 79.394952 41.148982 C 79.394952 41.720326 79.10928 42.005998 78.537936 42.005998 L 68.297694 42.005998 C 67.748324 42.005998 67.462652 41.720326 67.462652 41.148982 Z M 80.208019 23.898787 L 81.196884 23.898787 C 81.746253 23.898787 82.031925 23.613115 82.031925 23.063746 L 82.031925 22.096856 C 82.031925 21.525512 82.295622 21.23984 82.866966 21.23984 L 83.833856 21.23984 C 84.4052 21.23984 84.668897 20.976143 84.668897 20.404799 L 84.668897 4.165444 C 84.668897 3.616074 84.4052 3.330402 83.833856 3.330402 L 82.866966 3.330402 C 82.295622 3.330402 82.031925 3.616074 82.031925 4.165444 L 82.031925 5.132334 C 82.031925 5.703678 81.746253 5.967375 81.196884 5.967375 L 80.208019 5.967375 C 79.65865 5.967375 79.394952 6.253047 79.394952 6.802416 L 79.394952 23.063746 C 79.394952 23.613115 79.65865 23.898787 80.208019 23.898787 Z M 98.798674 41.148982 L 98.798674 1.506496 C 98.798674 0.957127 99.084346 0.671455 99.633716 0.671455 L 101.985016 0.671455 C 102.534385 0.671455 102.820057 0.957127 102.820057 1.506496 L 102.820057 2.495361 C 102.820057 3.04473 103.083754 3.330402 103.655099 3.330402 L 104.621988 3.330402 C 105.193332 3.330402 105.45703 3.616074 105.45703 4.165444 L 105.45703 5.132334 C 105.45703 5.703678 105.742702 5.967375 106.314046 5.967375 L 107.280936 5.967375 C 107.830305 5.967375 108.115977 6.253047 108.115977 6.802416 L 108.115977 7.791281 C 108.115977 8.34065 108.401649 8.626322 108.951018 8.626322 L 109.917908 8.626322 C 110.489252 8.626322 110.774924 8.890019 110.774924 9.461363 L 110.774924 10.428253 C 110.774924 10.999597 111.038621 11.263294 111.609965 11.263294 L 112.576855 11.263294 C 113.126224 11.263294 113.411896 11.548966 113.411896 12.12031 L 113.411896 13.0872 C 113.411896 13.636569 113.697568 13.922242 114.246938 13.922242 L 115.213828 13.922242 C 115.785172 13.922242 116.048869 14.207914 116.048869 14.757283 L 116.048869 15.724173 C 116.048869 16.295517 116.334541 16.581189 116.905885 16.581189 L 117.872775 16.581189 C 118.422144 16.581189 118.707816 16.844886 118.707816 17.41623 L 118.707816 18.38312 C 118.707816 18.932489 118.993488 19.218161 119.542857 19.218161 L 120.531722 19.218161 C 121.081091 19.218161 121.366763 18.932489 121.366763 18.38312 L 121.366763 17.41623 C 121.366763 16.844886 121.081091 16.581189 120.531722 16.581189 L 119.542857 16.581189 C 118.993488 16.581189 118.707816 16.295517 118.707816 15.724173 L 118.707816 14.757283 C 118.707816 14.207914 118.422144 13.922242 117.872775 13.922242 L 116.905885 13.922242 C 116.334541 13.922242 116.048869 13.636569 116.048869 13.0872 L 116.048869 1.506496 C 116.048869 0.957127 116.334541 0.671455 116.905885 0.671455 L 127.146128 0.671455 C 127.695497 0.671455 127.981169 0.957127 127.981169 1.506496 L 127.981169 41.148982 C 127.981169 41.720326 127.695497 42.005998 127.146128 42.005998 L 116.905885 42.005998 C 116.334541 42.005998 116.048869 41.720326 116.048869 41.148982 L 116.048869 20.053202 C 116.048869 19.503833 115.785172 19.218161 115.213828 19.218161 L 114.246938 19.218161 C 113.697568 19.218161 113.411896 18.932489 113.411896 18.38312 L 113.411896 17.41623 C 113.411896 16.844886 113.126224 16.581189 112.576855 16.581189 L 111.544041 16.581189 C 110.994672 16.581189 110.730974 16.844886 110.730974 17.41623 L 110.730974 41.148982 C 110.730974 41.720326 110.445302 42.005998 109.873958 42.005998 L 99.633716 42.005998 C 99.084346 42.005998 98.798674 41.720326 98.798674 41.148982 Z M 130.178646 41.148982 L 130.178646 1.506496 C 130.178646 0.957127 130.464318 0.671455 131.035662 0.671455 L 141.275905 0.671455 C 141.825274 0.671455 142.110946 0.957127 142.110946 1.506496 L 142.110946 17.592028 C 142.110946 18.141397 142.374643 18.427069 142.945987 18.427069 L 143.912877 18.427069 C 144.462246 18.427069 144.747918 18.141397 144.747918 17.592028 L 144.747918 16.625138 C 144.747918 16.053794 145.03359 15.768122 145.58296 15.768122 L 146.54985 15.768122 C 147.121194 15.768122 147.406866 15.504425 147.406866 14.933081 L 147.406866 1.506496 C 147.406866 0.957127 147.670563 0.671455 148.241907 0.671455 L 158.48215 0.671455 C 159.031519 0.671455 159.317191 0.957127 159.317191 1.506496 L 159.317191 17.592028 C 159.317191 18.141397 159.031519 18.427069 158.48215 18.427069 L 150.900854 18.427069 C 150.32951 18.427069 150.043838 18.712741 150.043838 19.262111 L 150.043838 20.229 C 150.043838 20.800345 150.32951 21.064042 150.900854 21.064042 L 155.823202 21.064042 C 156.394546 21.064042 156.658244 21.349714 156.658244 21.899083 L 156.658244 22.887948 C 156.658244 23.437317 156.943916 23.722989 157.51526 23.722989 L 158.48215 23.722989 C 159.031519 23.722989 159.317191 24.008661 159.317191 24.55803 L 159.317191 41.148982 C 159.317191 41.720326 159.031519 42.005998 158.48215 42.005998 L 148.241907 42.005998 C 147.670563 42.005998 147.406866 41.720326 147.406866 41.148982 L 147.406866 24.55803 C 147.406866 24.008661 147.121194 23.722989 146.54985 23.722989 L 145.58296 23.722989 C 145.03359 23.722989 144.747918 23.437317 144.747918 22.887948 L 144.747918 21.899083 C 144.747918 21.349714 144.462246 21.064042 143.912877 21.064042 L 142.945987 21.064042 C 142.374643 21.064042 142.110946 21.349714 142.110946 21.899083 L 142.110946 41.148982 C 142.110946 41.720326 141.825274 42.005998 141.275905 42.005998 L 131.035662 42.005998 C 130.464318 42.005998 130.178646 41.720326 130.178646 41.148982 Z M 166.810587 41.148982 L 166.810587 40.182092 C 166.810587 39.632722 166.524915 39.34705 165.975546 39.34705 L 165.008656 39.34705 C 164.437312 39.34705 164.173615 39.061378 164.173615 38.512009 L 164.173615 37.545119 C 164.173615 36.973775 163.887943 36.688103 163.338574 36.688103 L 162.371684 36.688103 C 161.80034 36.688103 161.514668 36.424406 161.514668 35.875037 L 161.514668 6.802416 C 161.514668 6.253047 161.80034 5.967375 162.371684 5.967375 L 163.338574 5.967375 C 163.887943 5.967375 164.173615 5.703678 164.173615 5.132334 L 164.173615 4.165444 C 164.173615 3.616074 164.437312 3.330402 165.008656 3.330402 L 165.975546 3.330402 C 166.524915 3.330402 166.810587 3.04473 166.810587 2.495361 L 166.810587 1.506496 C 166.810587 0.957127 167.096259 0.671455 167.667603 0.671455 L 186.456032 0.671455 C 187.049351 0.671455 187.356997 0.979102 187.356997 1.550446 L 187.356997 2.451412 C 187.356997 3.022756 187.642669 3.330402 188.235988 3.330402 L 189.774222 3.330402 C 190.367541 3.330402 190.653213 3.616074 190.653213 4.209393 L 190.653213 11.70279 C 190.653213 12.296109 190.367541 12.603755 189.774222 12.603755 L 182.280826 12.603755 C 181.687507 12.603755 181.37986 12.296109 181.37986 11.70279 L 181.37986 10.779849 C 181.37986 10.23048 181.116163 9.944808 180.544819 9.944808 L 179.621878 9.944808 C 179.02856 9.944808 178.742888 9.659136 178.742888 9.065817 L 178.742888 4.165444 C 178.742888 3.616074 178.457216 3.330402 177.885872 3.330402 L 176.918982 3.330402 C 176.369612 3.330402 176.08394 3.616074 176.08394 4.165444 L 176.08394 5.132334 C 176.08394 5.703678 175.798268 5.967375 175.248899 5.967375 L 174.282009 5.967375 C 173.710665 5.967375 173.446968 6.253047 173.446968 6.802416 L 173.446968 35.875037 C 173.446968 36.424406 173.710665 36.688103 174.282009 36.688103 L 175.248899 36.688103 C 175.798268 36.688103 176.08394 36.973775 176.08394 37.545119 L 176.08394 38.512009 C 176.08394 39.061378 176.369612 39.34705 176.918982 39.34705 L 177.885872 39.34705 C 178.457216 39.34705 178.742888 39.061378 178.742888 38.512009 L 178.742888 30.952688 C 178.742888 30.381344 179.02856 30.073697 179.621878 30.073697 L 189.774222 30.073697 C 190.367541 30.073697 190.653213 30.381344 190.653213 30.952688 L 190.653213 38.46806 C 190.653213 39.061378 190.367541 39.34705 189.774222 39.34705 L 188.895231 39.34705 C 188.301912 39.34705 188.01624 39.632722 188.01624 40.226041 L 188.01624 41.127007 C 188.01624 41.698351 187.708594 42.005998 187.115275 42.005998 L 167.667603 42.005998 C 167.096259 42.005998 166.810587 41.720326 166.810587 41.148982 Z M 204.343495 4.165444 L 204.343495 20.690471 C 204.343495 21.23984 204.629167 21.503537 205.178536 21.503537 L 206.145426 21.503537 C 206.71677 21.503537 206.980467 21.23984 206.980467 20.690471 L 206.980467 19.701606 C 206.980467 19.152237 207.266139 18.866565 207.815508 18.866565 L 208.804373 18.866565 C 209.353742 18.866565 209.639414 18.580893 209.639414 18.031523 L 209.639414 6.802416 C 209.639414 6.253047 209.353742 5.967375 208.804373 5.967375 L 207.815508 5.967375 C 207.266139 5.967375 206.980467 5.703678 206.980467 5.132334 L 206.980467 4.165444 C 206.980467 3.616074 206.71677 3.330402 206.145426 3.330402 L 205.178536 3.330402 C 204.629167 3.330402 204.343495 3.616074 204.343495 4.165444 Z M 192.411194 41.148982 L 192.411194 1.506496 C 192.411194 0.957127 192.696866 0.671455 193.268211 0.671455 L 215.418779 0.671455 C 215.990123 0.671455 216.25382 0.957127 216.25382 1.506496 L 216.25382 2.495361 C 216.25382 3.04473 216.539492 3.330402 217.088861 3.330402 L 218.055751 3.330402 C 218.627095 3.330402 218.912767 3.616074 218.912767 4.165444 L 218.912767 5.132334 C 218.912767 5.703678 219.176464 5.967375 219.747808 5.967375 L 220.714698 5.967375 C 221.286042 5.967375 221.549739 6.253047 221.549739 6.802416 L 221.549739 18.031523 C 221.549739 18.580893 221.286042 18.866565 220.714698 18.866565 L 219.747808 18.866565 C 219.176464 18.866565 218.912767 19.152237 218.912767 19.701606 L 218.912767 20.690471 C 218.912767 21.23984 218.627095 21.503537 218.055751 21.503537 L 213.133403 21.503537 C 212.562059 21.503537 212.276387 21.789209 212.276387 22.360553 L 212.276387 23.327443 C 212.276387 23.876812 212.562059 24.162484 213.133403 24.162484 L 218.055751 24.162484 C 218.627095 24.162484 218.912767 24.448156 218.912767 24.997526 L 218.912767 25.964415 C 218.912767 26.535759 219.176464 26.821431 219.747808 26.821431 L 220.714698 26.821431 C 221.286042 26.821431 221.549739 27.085129 221.549739 27.656473 L 221.549739 41.148982 C 221.549739 41.720326 221.286042 42.005998 220.714698 42.005998 L 210.474455 42.005998 C 209.925086 42.005998 209.639414 41.720326 209.639414 41.148982 L 209.639414 27.656473 C 209.639414 27.085129 209.353742 26.821431 208.804373 26.821431 L 207.815508 26.821431 C 207.266139 26.821431 206.980467 26.535759 206.980467 25.964415 L 206.980467 24.997526 C 206.980467 24.448156 206.71677 24.162484 206.145426 24.162484 L 205.178536 24.162484 C 204.629167 24.162484 204.343495 24.448156 204.343495 24.997526 L 204.343495 41.148982 C 204.343495 41.720326 204.057823 42.005998 203.508453 42.005998 L 193.268211 42.005998 C 192.696866 42.005998 192.411194 41.720326 192.411194 41.148982 Z M 232.361326 41.148982 L 232.361326 24.55803 C 232.361326 24.008661 232.075654 23.722989 231.526285 23.722989 L 228.559691 23.722989 C 228.010322 23.722989 227.72465 23.437317 227.72465 22.887948 L 227.72465 21.899083 C 227.72465 21.349714 227.460953 21.064042 226.889609 21.064042 L 225.922719 21.064042 C 225.373349 21.064042 225.087677 20.800345 225.087677 20.229 L 225.087677 19.262111 C 225.087677 18.712741 224.802005 18.427069 224.252636 18.427069 L 223.285746 18.427069 C 222.714402 18.427069 222.42873 18.141397 222.42873 17.592028 L 222.42873 1.506496 C 222.42873 0.957127 222.714402 0.671455 223.285746 0.671455 L 233.504014 0.671455 C 234.075358 0.671455 234.36103 0.957127 234.36103 1.506496 L 234.36103 20.229 C 234.36103 20.800345 234.646702 21.064042 235.196072 21.064042 L 236.162962 21.064042 C 236.734306 21.064042 236.998003 21.349714 236.998003 21.899083 L 236.998003 22.887948 C 236.998003 23.437317 237.283675 23.722989 237.833044 23.722989 L 238.799934 23.722989 C 239.371278 23.722989 239.65695 23.437317 239.65695 22.887948 L 239.65695 21.899083 C 239.65695 21.349714 239.920647 21.064042 240.491991 21.064042 L 241.458881 21.064042 C 242.030225 21.064042 242.293922 20.800345 242.293922 20.229 L 242.293922 1.506496 C 242.293922 0.957127 242.579594 0.671455 243.150938 0.671455 L 253.391181 0.671455 C 253.94055 0.671455 254.226222 0.957127 254.226222 1.506496 L 254.226222 17.592028 C 254.226222 18.141397 253.94055 18.427069 253.391181 18.427069 L 252.402317 18.427069 C 251.852947 18.427069 251.567275 18.712741 251.567275 19.262111 L 251.567275 20.229 C 251.567275 20.800345 251.281603 21.064042 250.732234 21.064042 L 249.765344 21.064042 C 249.194 21.064042 248.908328 21.349714 248.908328 21.899083 L 248.908328 22.887948 C 248.908328 23.437317 248.644631 23.722989 248.095262 23.722989 L 245.128668 23.722989 C 244.557324 23.722989 244.293626 24.008661 244.293626 24.55803 L 244.293626 41.148982 C 244.293626 41.720326 244.007954 42.005998 243.458585 42.005998 L 233.196368 42.005998 C 232.646998 42.005998 232.361326 41.720326 232.361326 41.148982 Z M 232.361326 41.148982 " stroke="#1e5175" stroke-width="11.589533" stroke-opacity="1" stroke-miterlimit="4"/><g fill="#ffffff" fill-opacity="1"><g transform="translate(15.623336, 37.987215)"><g><path d="M 0.546875 -0.15625 L 0.546875 -7.1875 C 0.546875 -7.289062 0.597656 -7.34375 0.703125 -7.34375 L 5.109375 -7.34375 C 5.203125 -7.34375 5.25 -7.289062 5.25 -7.1875 L 5.265625 -7.015625 C 5.265625 -6.921875 5.3125 -6.875 5.40625 -6.875 L 5.578125 -6.875 C 5.671875 -6.875 5.71875 -6.820312 5.71875 -6.71875 L 5.71875 -5.25 C 5.71875 -5.144531 5.671875 -5.09375 5.578125 -5.09375 L 5.40625 -5.09375 C 5.300781 -5.09375 5.25 -5.046875 5.25 -4.953125 L 5.25 -4.78125 C 5.25 -4.675781 5.203125 -4.625 5.109375 -4.625 L 4.71875 -4.625 C 4.613281 -4.625 4.5625 -4.578125 4.5625 -4.484375 L 4.5625 -4.3125 C 4.5625 -4.207031 4.613281 -4.15625 4.71875 -4.15625 L 5.34375 -4.15625 C 5.4375 -4.15625 5.484375 -4.109375 5.484375 -4.015625 L 5.484375 -3.828125 C 5.484375 -3.734375 5.535156 -3.6875 5.640625 -3.6875 L 5.8125 -3.6875 C 5.914062 -3.6875 5.96875 -3.632812 5.96875 -3.53125 L 5.96875 -1.09375 C 5.96875 -0.988281 5.914062 -0.9375 5.8125 -0.9375 L 5.640625 -0.9375 C 5.535156 -0.9375 5.484375 -0.890625 5.484375 -0.796875 L 5.484375 -0.625 C 5.484375 -0.519531 5.4375 -0.46875 5.34375 -0.46875 L 5.171875 -0.46875 C 5.066406 -0.46875 5.015625 -0.421875 5.015625 -0.328125 L 5.015625 -0.15625 C 5.015625 -0.0507812 4.96875 0 4.875 0 L 0.703125 0 C 0.597656 0 0.546875 -0.0507812 0.546875 -0.15625 Z M 2.671875 -6.71875 L 2.671875 -4.8125 C 2.671875 -4.707031 2.71875 -4.65625 2.8125 -4.65625 L 2.984375 -4.65625 C 3.085938 -4.65625 3.140625 -4.707031 3.140625 -4.8125 L 3.140625 -4.984375 C 3.140625 -5.078125 3.1875 -5.125 3.28125 -5.125 L 3.453125 -5.125 C 3.554688 -5.125 3.609375 -5.175781 3.609375 -5.28125 L 3.609375 -6.25 C 3.609375 -6.351562 3.554688 -6.40625 3.453125 -6.40625 L 3.28125 -6.40625 C 3.1875 -6.40625 3.140625 -6.453125 3.140625 -6.546875 L 3.140625 -6.71875 C 3.140625 -6.820312 3.085938 -6.875 2.984375 -6.875 L 2.8125 -6.875 C 2.71875 -6.875 2.671875 -6.820312 2.671875 -6.71875 Z M 2.671875 -3.984375 L 2.671875 -0.625 C 2.671875 -0.53125 2.71875 -0.484375 2.8125 -0.484375 L 2.984375 -0.484375 C 3.085938 -0.484375 3.140625 -0.53125 3.140625 -0.625 L 3.140625 -0.796875 C 3.140625 -0.898438 3.1875 -0.953125 3.28125 -0.953125 L 3.453125 -0.953125 C 3.554688 -0.953125 3.609375 -1 3.609375 -1.09375 L 3.609375 -3.515625 C 3.609375 -3.609375 3.554688 -3.65625 3.453125 -3.65625 L 3.28125 -3.65625 C 3.1875 -3.65625 3.140625 -3.707031 3.140625 -3.8125 L 3.140625 -3.984375 C 3.140625 -4.085938 3.085938 -4.140625 2.984375 -4.140625 L 2.8125 -4.140625 C 2.71875 -4.140625 2.671875 -4.085938 2.671875 -3.984375 Z M 2.671875 -3.984375 "/></g></g></g><g fill="#ffffff" fill-opacity="1"><g transform="translate(21.429555, 37.987215)"><g><path d="M 0.546875 -0.15625 L 0.546875 -7.1875 C 0.546875 -7.289062 0.597656 -7.34375 0.703125 -7.34375 L 2.515625 -7.34375 C 2.617188 -7.34375 2.671875 -7.289062 2.671875 -7.1875 L 2.671875 -0.625 C 2.671875 -0.519531 2.71875 -0.46875 2.8125 -0.46875 L 2.984375 -0.46875 C 3.085938 -0.46875 3.140625 -0.519531 3.140625 -0.625 L 3.140625 -1.5 C 3.140625 -1.59375 3.1875 -1.640625 3.28125 -1.640625 L 3.46875 -1.640625 C 3.5625 -1.640625 3.609375 -1.691406 3.609375 -1.796875 L 3.609375 -1.96875 C 3.609375 -2.070312 3.660156 -2.125 3.765625 -2.125 L 5.109375 -2.125 C 5.203125 -2.125 5.25 -2.070312 5.25 -1.96875 L 5.25 -0.625 C 5.25 -0.519531 5.203125 -0.46875 5.109375 -0.46875 L 4.9375 -0.46875 C 4.832031 -0.46875 4.78125 -0.421875 4.78125 -0.328125 L 4.78125 -0.15625 C 4.78125 -0.0507812 4.734375 0 4.640625 0 L 0.703125 0 C 0.597656 0 0.546875 -0.0507812 0.546875 -0.15625 Z M 0.546875 -0.15625 "/></g></g></g><g fill="#ffffff" fill-opacity="1"><g transform="translate(26.215735, 37.987215)"><g><path d="M 0.546875 -0.15625 L 0.546875 -5.3125 C 0.546875 -5.40625 0.597656 -5.453125 0.703125 -5.453125 L 0.953125 -5.453125 C 1.054688 -5.453125 1.109375 -5.503906 1.109375 -5.609375 L 1.109375 -5.78125 C 1.109375 -5.882812 1.15625 -5.9375 1.25 -5.9375 L 1.421875 -5.9375 C 1.523438 -5.9375 1.578125 -5.984375 1.578125 -6.078125 L 1.578125 -6.25 C 1.578125 -6.351562 1.625 -6.40625 1.71875 -6.40625 L 1.890625 -6.40625 C 1.992188 -6.40625 2.046875 -6.453125 2.046875 -6.546875 L 2.046875 -6.71875 C 2.046875 -6.820312 2.097656 -6.875 2.203125 -6.875 L 2.28125 -6.875 C 2.375 -6.875 2.421875 -6.921875 2.421875 -7.015625 L 2.421875 -7.1875 C 2.421875 -7.289062 2.472656 -7.34375 2.578125 -7.34375 L 5.109375 -7.34375 C 5.203125 -7.34375 5.25 -7.289062 5.25 -7.1875 L 5.25 -7.015625 C 5.25 -6.921875 5.300781 -6.875 5.40625 -6.875 L 5.578125 -6.875 C 5.671875 -6.875 5.71875 -6.820312 5.71875 -6.71875 L 5.71875 -0.15625 C 5.71875 -0.0507812 5.671875 0 5.578125 0 L 3.75 0 C 3.65625 0 3.609375 -0.0507812 3.609375 -0.15625 L 3.609375 -2.640625 C 3.609375 -2.742188 3.554688 -2.796875 3.453125 -2.796875 L 3.28125 -2.796875 C 3.1875 -2.796875 3.140625 -2.742188 3.140625 -2.640625 L 3.140625 -2.46875 C 3.140625 -2.375 3.085938 -2.328125 2.984375 -2.328125 L 2.8125 -2.328125 C 2.71875 -2.328125 2.671875 -2.273438 2.671875 -2.171875 L 2.671875 -0.15625 C 2.671875 -0.0507812 2.617188 0 2.515625 0 L 0.703125 0 C 0.597656 0 0.546875 -0.0507812 0.546875 -0.15625 Z M 2.8125 -3.21875 L 2.984375 -3.21875 C 3.085938 -3.21875 3.140625 -3.265625 3.140625 -3.359375 L 3.140625 -3.53125 C 3.140625 -3.632812 3.1875 -3.6875 3.28125 -3.6875 L 3.453125 -3.6875 C 3.554688 -3.6875 3.609375 -3.734375 3.609375 -3.828125 L 3.609375 -6.71875 C 3.609375 -6.820312 3.554688 -6.875 3.453125 -6.875 L 3.28125 -6.875 C 3.1875 -6.875 3.140625 -6.820312 3.140625 -6.71875 L 3.140625 -6.546875 C 3.140625 -6.453125 3.085938 -6.40625 2.984375 -6.40625 L 2.8125 -6.40625 C 2.71875 -6.40625 2.671875 -6.351562 2.671875 -6.25 L 2.671875 -3.359375 C 2.671875 -3.265625 2.71875 -3.21875 2.8125 -3.21875 Z M 2.8125 -3.21875 "/></g></g></g><g fill="#ffffff" fill-opacity="1"><g transform="translate(31.786561, 37.987215)"><g><path d="M 0.546875 -0.15625 L 0.546875 -7.1875 C 0.546875 -7.289062 0.597656 -7.34375 0.703125 -7.34375 L 1.109375 -7.34375 C 1.210938 -7.34375 1.265625 -7.289062 1.265625 -7.1875 L 1.265625 -7.015625 C 1.265625 -6.921875 1.3125 -6.875 1.40625 -6.875 L 1.578125 -6.875 C 1.679688 -6.875 1.734375 -6.820312 1.734375 -6.71875 L 1.734375 -6.546875 C 1.734375 -6.453125 1.78125 -6.40625 1.875 -6.40625 L 2.0625 -6.40625 C 2.15625 -6.40625 2.203125 -6.351562 2.203125 -6.25 L 2.203125 -6.078125 C 2.203125 -5.984375 2.253906 -5.9375 2.359375 -5.9375 L 2.53125 -5.9375 C 2.625 -5.9375 2.671875 -5.882812 2.671875 -5.78125 L 2.671875 -5.609375 C 2.671875 -5.503906 2.722656 -5.453125 2.828125 -5.453125 L 3 -5.453125 C 3.09375 -5.453125 3.140625 -5.40625 3.140625 -5.3125 L 3.140625 -5.140625 C 3.140625 -5.035156 3.191406 -4.984375 3.296875 -4.984375 L 3.46875 -4.984375 C 3.5625 -4.984375 3.609375 -4.9375 3.609375 -4.84375 L 3.609375 -4.671875 C 3.609375 -4.566406 3.660156 -4.515625 3.765625 -4.515625 L 3.9375 -4.515625 C 4.039062 -4.515625 4.09375 -4.46875 4.09375 -4.375 L 4.09375 -4.203125 C 4.09375 -4.097656 4.140625 -4.046875 4.234375 -4.046875 L 4.40625 -4.046875 C 4.507812 -4.046875 4.5625 -4.097656 4.5625 -4.203125 L 4.5625 -4.375 C 4.5625 -4.46875 4.507812 -4.515625 4.40625 -4.515625 L 4.234375 -4.515625 C 4.140625 -4.515625 4.09375 -4.566406 4.09375 -4.671875 L 4.09375 -4.84375 C 4.09375 -4.9375 4.039062 -4.984375 3.9375 -4.984375 L 3.765625 -4.984375 C 3.660156 -4.984375 3.609375 -5.035156 3.609375 -5.140625 L 3.609375 -7.1875 C 3.609375 -7.289062 3.660156 -7.34375 3.765625 -7.34375 L 5.578125 -7.34375 C 5.679688 -7.34375 5.734375 -7.289062 5.734375 -7.1875 L 5.734375 -0.15625 C 5.734375 -0.0507812 5.679688 0 5.578125 0 L 3.765625 0 C 3.660156 0 3.609375 -0.0507812 3.609375 -0.15625 L 3.609375 -3.890625 C 3.609375 -3.992188 3.5625 -4.046875 3.46875 -4.046875 L 3.296875 -4.046875 C 3.191406 -4.046875 3.140625 -4.097656 3.140625 -4.203125 L 3.140625 -4.375 C 3.140625 -4.46875 3.09375 -4.515625 3 -4.515625 L 2.8125 -4.515625 C 2.71875 -4.515625 2.671875 -4.46875 2.671875 -4.375 L 2.671875 -0.15625 C 2.671875 -0.0507812 2.617188 0 2.515625 0 L 0.703125 0 C 0.597656 0 0.546875 -0.0507812 0.546875 -0.15625 Z M 0.546875 -0.15625 "/></g></g></g><g fill="#ffffff" fill-opacity="1"><g transform="translate(37.365232, 37.987215)"><g><path d="M 0.546875 -0.15625 L 0.546875 -7.1875 C 0.546875 -7.289062 0.597656 -7.34375 0.703125 -7.34375 L 2.515625 -7.34375 C 2.617188 -7.34375 2.671875 -7.289062 2.671875 -7.1875 L 2.671875 -4.34375 C 2.671875 -4.238281 2.71875 -4.1875 2.8125 -4.1875 L 2.984375 -4.1875 C 3.085938 -4.1875 3.140625 -4.238281 3.140625 -4.34375 L 3.140625 -4.515625 C 3.140625 -4.609375 3.1875 -4.65625 3.28125 -4.65625 L 3.453125 -4.65625 C 3.554688 -4.65625 3.609375 -4.707031 3.609375 -4.8125 L 3.609375 -7.1875 C 3.609375 -7.289062 3.65625 -7.34375 3.75 -7.34375 L 5.578125 -7.34375 C 5.671875 -7.34375 5.71875 -7.289062 5.71875 -7.1875 L 5.71875 -4.34375 C 5.71875 -4.238281 5.671875 -4.1875 5.578125 -4.1875 L 4.234375 -4.1875 C 4.128906 -4.1875 4.078125 -4.140625 4.078125 -4.046875 L 4.078125 -3.859375 C 4.078125 -3.765625 4.128906 -3.71875 4.234375 -3.71875 L 5.109375 -3.71875 C 5.203125 -3.71875 5.25 -3.664062 5.25 -3.5625 L 5.25 -3.390625 C 5.25 -3.296875 5.300781 -3.25 5.40625 -3.25 L 5.578125 -3.25 C 5.671875 -3.25 5.71875 -3.195312 5.71875 -3.09375 L 5.71875 -0.15625 C 5.71875 -0.0507812 5.671875 0 5.578125 0 L 3.75 0 C 3.65625 0 3.609375 -0.0507812 3.609375 -0.15625 L 3.609375 -3.09375 C 3.609375 -3.195312 3.554688 -3.25 3.453125 -3.25 L 3.28125 -3.25 C 3.1875 -3.25 3.140625 -3.296875 3.140625 -3.390625 L 3.140625 -3.5625 C 3.140625 -3.664062 3.085938 -3.71875 2.984375 -3.71875 L 2.8125 -3.71875 C 2.71875 -3.71875 2.671875 -3.664062 2.671875 -3.5625 L 2.671875 -0.15625 C 2.671875 -0.0507812 2.617188 0 2.515625 0 L 0.703125 0 C 0.597656 0 0.546875 -0.0507812 0.546875 -0.15625 Z M 0.546875 -0.15625 "/></g></g></g><g fill="#ffffff" fill-opacity="1"><g transform="translate(42.93606, 37.987215)"><g><path d="M 1.484375 -0.15625 L 1.484375 -0.328125 C 1.484375 -0.421875 1.4375 -0.46875 1.34375 -0.46875 L 1.171875 -0.46875 C 1.066406 -0.46875 1.015625 -0.519531 1.015625 -0.625 L 1.015625 -0.796875 C 1.015625 -0.890625 0.96875 -0.9375 0.875 -0.9375 L 0.703125 -0.9375 C 0.597656 -0.9375 0.546875 -0.988281 0.546875 -1.09375 L 0.546875 -6.25 C 0.546875 -6.351562 0.597656 -6.40625 0.703125 -6.40625 L 0.875 -6.40625 C 0.96875 -6.40625 1.015625 -6.453125 1.015625 -6.546875 L 1.015625 -6.71875 C 1.015625 -6.820312 1.066406 -6.875 1.171875 -6.875 L 1.34375 -6.875 C 1.4375 -6.875 1.484375 -6.921875 1.484375 -7.015625 L 1.484375 -7.1875 C 1.484375 -7.289062 1.535156 -7.34375 1.640625 -7.34375 L 4.984375 -7.34375 C 5.085938 -7.34375 5.140625 -7.289062 5.140625 -7.1875 L 5.140625 -7.03125 C 5.140625 -6.925781 5.191406 -6.875 5.296875 -6.875 L 5.5625 -6.875 C 5.664062 -6.875 5.71875 -6.820312 5.71875 -6.71875 L 5.71875 -5.375 C 5.71875 -5.269531 5.664062 -5.21875 5.5625 -5.21875 L 4.234375 -5.21875 C 4.128906 -5.21875 4.078125 -5.269531 4.078125 -5.375 L 4.078125 -5.546875 C 4.078125 -5.640625 4.03125 -5.6875 3.9375 -5.6875 L 3.765625 -5.6875 C 3.660156 -5.6875 3.609375 -5.738281 3.609375 -5.84375 L 3.609375 -6.71875 C 3.609375 -6.820312 3.554688 -6.875 3.453125 -6.875 L 3.28125 -6.875 C 3.1875 -6.875 3.140625 -6.820312 3.140625 -6.71875 L 3.140625 -6.546875 C 3.140625 -6.453125 3.085938 -6.40625 2.984375 -6.40625 L 2.8125 -6.40625 C 2.71875 -6.40625 2.671875 -6.351562 2.671875 -6.25 L 2.671875 -1.09375 C 2.671875 -0.988281 2.71875 -0.9375 2.8125 -0.9375 L 2.984375 -0.9375 C 3.085938 -0.9375 3.140625 -0.890625 3.140625 -0.796875 L 3.140625 -0.625 C 3.140625 -0.519531 3.1875 -0.46875 3.28125 -0.46875 L 3.453125 -0.46875 C 3.554688 -0.46875 3.609375 -0.519531 3.609375 -0.625 L 3.609375 -1.953125 C 3.609375 -2.066406 3.660156 -2.125 3.765625 -2.125 L 5.5625 -2.125 C 5.664062 -2.125 5.71875 -2.066406 5.71875 -1.953125 L 5.71875 -0.625 C 5.71875 -0.519531 5.664062 -0.46875 5.5625 -0.46875 L 5.40625 -0.46875 C 5.300781 -0.46875 5.25 -0.414062 5.25 -0.3125 L 5.25 -0.15625 C 5.25 -0.0507812 5.195312 0 5.09375 0 L 1.640625 0 C 1.535156 0 1.484375 -0.0507812 1.484375 -0.15625 Z M 1.484375 -0.15625 "/></g></g></g><g fill="#ffffff" fill-opacity="1"><g transform="translate(48.428422, 37.987215)"><g><path d="M 2.671875 -6.71875 L 2.671875 -3.78125 C 2.671875 -3.6875 2.71875 -3.640625 2.8125 -3.640625 L 2.984375 -3.640625 C 3.085938 -3.640625 3.140625 -3.6875 3.140625 -3.78125 L 3.140625 -3.96875 C 3.140625 -4.0625 3.1875 -4.109375 3.28125 -4.109375 L 3.453125 -4.109375 C 3.554688 -4.109375 3.609375 -4.160156 3.609375 -4.265625 L 3.609375 -6.25 C 3.609375 -6.351562 3.554688 -6.40625 3.453125 -6.40625 L 3.28125 -6.40625 C 3.1875 -6.40625 3.140625 -6.453125 3.140625 -6.546875 L 3.140625 -6.71875 C 3.140625 -6.820312 3.085938 -6.875 2.984375 -6.875 L 2.8125 -6.875 C 2.71875 -6.875 2.671875 -6.820312 2.671875 -6.71875 Z M 0.546875 -0.15625 L 0.546875 -7.1875 C 0.546875 -7.289062 0.597656 -7.34375 0.703125 -7.34375 L 4.640625 -7.34375 C 4.734375 -7.34375 4.78125 -7.289062 4.78125 -7.1875 L 4.78125 -7.015625 C 4.78125 -6.921875 4.832031 -6.875 4.9375 -6.875 L 5.109375 -6.875 C 5.203125 -6.875 5.25 -6.820312 5.25 -6.71875 L 5.25 -6.546875 C 5.25 -6.453125 5.300781 -6.40625 5.40625 -6.40625 L 5.578125 -6.40625 C 5.671875 -6.40625 5.71875 -6.351562 5.71875 -6.25 L 5.71875 -4.265625 C 5.71875 -4.160156 5.671875 -4.109375 5.578125 -4.109375 L 5.40625 -4.109375 C 5.300781 -4.109375 5.25 -4.0625 5.25 -3.96875 L 5.25 -3.78125 C 5.25 -3.6875 5.203125 -3.640625 5.109375 -3.640625 L 4.234375 -3.640625 C 4.128906 -3.640625 4.078125 -3.585938 4.078125 -3.484375 L 4.078125 -3.3125 C 4.078125 -3.21875 4.128906 -3.171875 4.234375 -3.171875 L 5.109375 -3.171875 C 5.203125 -3.171875 5.25 -3.117188 5.25 -3.015625 L 5.25 -2.84375 C 5.25 -2.75 5.300781 -2.703125 5.40625 -2.703125 L 5.578125 -2.703125 C 5.671875 -2.703125 5.71875 -2.648438 5.71875 -2.546875 L 5.71875 -0.15625 C 5.71875 -0.0507812 5.671875 0 5.578125 0 L 3.75 0 C 3.65625 0 3.609375 -0.0507812 3.609375 -0.15625 L 3.609375 -2.546875 C 3.609375 -2.648438 3.554688 -2.703125 3.453125 -2.703125 L 3.28125 -2.703125 C 3.1875 -2.703125 3.140625 -2.75 3.140625 -2.84375 L 3.140625 -3.015625 C 3.140625 -3.117188 3.085938 -3.171875 2.984375 -3.171875 L 2.8125 -3.171875 C 2.71875 -3.171875 2.671875 -3.117188 2.671875 -3.015625 L 2.671875 -0.15625 C 2.671875 -0.0507812 2.617188 0 2.515625 0 L 0.703125 0 C 0.597656 0 0.546875 -0.0507812 0.546875 -0.15625 Z M 0.546875 -0.15625 "/></g></g></g><g fill="#ffffff" fill-opacity="1"><g transform="translate(53.999248, 37.987215)"><g><path d="M 2.078125 -0.15625 L 2.078125 -3.09375 C 2.078125 -3.195312 2.023438 -3.25 1.921875 -3.25 L 1.40625 -3.25 C 1.300781 -3.25 1.25 -3.296875 1.25 -3.390625 L 1.25 -3.5625 C 1.25 -3.664062 1.203125 -3.71875 1.109375 -3.71875 L 0.9375 -3.71875 C 0.832031 -3.71875 0.78125 -3.765625 0.78125 -3.859375 L 0.78125 -4.046875 C 0.78125 -4.140625 0.734375 -4.1875 0.640625 -4.1875 L 0.46875 -4.1875 C 0.363281 -4.1875 0.3125 -4.238281 0.3125 -4.34375 L 0.3125 -7.1875 C 0.3125 -7.289062 0.363281 -7.34375 0.46875 -7.34375 L 2.28125 -7.34375 C 2.382812 -7.34375 2.4375 -7.289062 2.4375 -7.1875 L 2.4375 -3.859375 C 2.4375 -3.765625 2.484375 -3.71875 2.578125 -3.71875 L 2.75 -3.71875 C 2.851562 -3.71875 2.90625 -3.664062 2.90625 -3.5625 L 2.90625 -3.390625 C 2.90625 -3.296875 2.953125 -3.25 3.046875 -3.25 L 3.21875 -3.25 C 3.320312 -3.25 3.375 -3.296875 3.375 -3.390625 L 3.375 -3.5625 C 3.375 -3.664062 3.421875 -3.71875 3.515625 -3.71875 L 3.6875 -3.71875 C 3.789062 -3.71875 3.84375 -3.765625 3.84375 -3.859375 L 3.84375 -7.1875 C 3.84375 -7.289062 3.894531 -7.34375 4 -7.34375 L 5.8125 -7.34375 C 5.914062 -7.34375 5.96875 -7.289062 5.96875 -7.1875 L 5.96875 -4.34375 C 5.96875 -4.238281 5.914062 -4.1875 5.8125 -4.1875 L 5.640625 -4.1875 C 5.535156 -4.1875 5.484375 -4.140625 5.484375 -4.046875 L 5.484375 -3.859375 C 5.484375 -3.765625 5.4375 -3.71875 5.34375 -3.71875 L 5.171875 -3.71875 C 5.066406 -3.71875 5.015625 -3.664062 5.015625 -3.5625 L 5.015625 -3.390625 C 5.015625 -3.296875 4.96875 -3.25 4.875 -3.25 L 4.34375 -3.25 C 4.25 -3.25 4.203125 -3.195312 4.203125 -3.09375 L 4.203125 -0.15625 C 4.203125 -0.0507812 4.148438 0 4.046875 0 L 2.234375 0 C 2.128906 0 2.078125 -0.0507812 2.078125 -0.15625 Z M 2.078125 -0.15625 "/></g></g></g><path stroke-linecap="butt" transform="matrix(0.130097, 0, 0, 0.130097, 48.858418, 36.81342)" fill="none" stroke-linejoin="miter" d="M 17.722492 56.861504 L 17.722492 3.415852 C 17.722492 2.66521 18.0828 2.274877 18.863466 2.274877 L 32.645239 2.274877 C 33.425906 2.274877 33.786213 2.66521 33.786213 3.415852 L 33.786213 56.861504 C 33.786213 57.612145 33.425906 58.002479 32.645239 58.002479 L 18.863466 58.002479 C 18.0828 58.002479 17.722492 57.612145 17.722492 56.861504 Z M 43.904857 56.861504 L 43.904857 55.570401 C 43.904857 54.789735 43.514523 54.429427 42.763882 54.429427 L 41.442753 54.429427 C 40.692112 54.429427 40.331804 54.039093 40.331804 53.288452 L 40.331804 51.997349 C 40.331804 51.216682 39.941471 50.856375 39.19083 50.856375 L 37.899727 50.856375 C 37.149086 50.856375 36.758752 50.466041 36.758752 49.745426 L 36.758752 10.561956 C 36.758752 9.811315 37.149086 9.451007 37.899727 9.451007 L 39.19083 9.451007 C 39.941471 9.451007 40.331804 9.060673 40.331804 8.310032 L 40.331804 6.988904 C 40.331804 6.238262 40.692112 5.847929 41.442753 5.847929 L 42.763882 5.847929 C 43.514523 5.847929 43.904857 5.487621 43.904857 4.73698 L 43.904857 3.415852 C 43.904857 2.66521 44.265164 2.274877 45.015805 2.274877 L 67.775246 2.274877 C 68.525887 2.274877 68.916221 2.66521 68.916221 3.415852 L 68.916221 4.73698 C 68.916221 5.487621 69.276529 5.847929 70.02717 5.847929 L 71.318273 5.847929 C 72.09894 5.847929 72.459247 6.238262 72.459247 6.988904 L 72.459247 8.310032 C 72.459247 9.060673 72.849581 9.451007 73.600222 9.451007 L 74.891325 9.451007 C 75.671992 9.451007 76.032299 9.811315 76.032299 10.561956 L 76.032299 49.745426 C 76.032299 50.466041 75.671992 50.856375 74.891325 50.856375 L 73.600222 50.856375 C 72.849581 50.856375 72.459247 51.216682 72.459247 51.997349 L 72.459247 53.288452 C 72.459247 54.039093 72.09894 54.429427 71.318273 54.429427 L 70.02717 54.429427 C 69.276529 54.429427 68.916221 54.789735 68.916221 55.570401 L 68.916221 56.861504 C 68.916221 57.612145 68.525887 58.002479 67.775246 58.002479 L 45.015805 58.002479 C 44.265164 58.002479 43.904857 57.612145 43.904857 56.861504 Z M 52.822474 6.988904 L 52.822474 53.288452 C 52.822474 54.039093 53.212807 54.429427 53.963448 54.429427 L 55.284577 54.429427 C 56.035218 54.429427 56.395526 54.039093 56.395526 53.288452 L 56.395526 51.997349 C 56.395526 51.216682 56.785859 50.856375 57.5365 50.856375 L 58.827603 50.856375 C 59.578245 50.856375 59.968578 50.466041 59.968578 49.745426 L 59.968578 10.561956 C 59.968578 9.811315 59.578245 9.451007 58.827603 9.451007 L 57.5365 9.451007 C 56.785859 9.451007 56.395526 9.060673 56.395526 8.310032 L 56.395526 6.988904 C 56.395526 6.238262 56.035218 5.847929 55.284577 5.847929 L 53.963448 5.847929 C 53.212807 5.847929 52.822474 6.238262 52.822474 6.988904 Z M 81.40689 56.861504 L 81.40689 56.741402 C 81.40689 55.99076 80.986531 55.630453 80.145813 55.630453 C 79.395172 55.630453 79.004838 55.240119 79.004838 54.489478 L 79.004838 45.391707 C 79.004838 44.671091 79.425198 44.310784 80.265916 44.310784 C 81.016557 44.310784 81.40689 43.890424 81.40689 42.989655 C 81.40689 42.299065 81.767198 41.938757 82.517839 41.938757 L 91.585585 41.938757 C 92.336226 41.938757 92.696534 42.329091 92.696534 43.109758 C 92.696534 43.92045 93.116893 44.310784 93.957611 44.310784 C 94.708252 44.310784 95.098586 44.671091 95.098586 45.391707 L 95.098586 54.489478 C 95.098586 55.240119 94.678227 55.630453 93.837508 55.630453 C 93.086867 55.630453 92.696534 56.020786 92.696534 56.861504 C 92.696534 57.612145 92.336226 58.002479 91.585585 58.002479 L 82.517839 58.002479 C 81.767198 58.002479 81.40689 57.612145 81.40689 56.861504 Z M 81.40689 56.861504 " stroke="#1e5175" stroke-width="14.137188" stroke-opacity="1" stroke-miterlimit="4"/><g fill="#00bf63" fill-opacity="1"><g transform="translate(50.620827, 44.359053)"><g><path d="M 0.546875 -0.140625 L 0.546875 -7.109375 C 0.546875 -7.203125 0.59375 -7.25 0.6875 -7.25 L 2.484375 -7.25 C 2.585938 -7.25 2.640625 -7.203125 2.640625 -7.109375 L 2.640625 -0.140625 C 2.640625 -0.046875 2.585938 0 2.484375 0 L 0.6875 0 C 0.59375 0 0.546875 -0.046875 0.546875 -0.140625 Z M 0.546875 -0.140625 "/></g></g></g><g fill="#00bf63" fill-opacity="1"><g transform="translate(53.098421, 44.359053)"><g><path d="M 1.46875 -0.140625 L 1.46875 -0.3125 C 1.46875 -0.414062 1.421875 -0.46875 1.328125 -0.46875 L 1.15625 -0.46875 C 1.050781 -0.46875 1 -0.515625 1 -0.609375 L 1 -0.78125 C 1 -0.882812 0.953125 -0.9375 0.859375 -0.9375 L 0.6875 -0.9375 C 0.59375 -0.9375 0.546875 -0.984375 0.546875 -1.078125 L 0.546875 -6.171875 C 0.546875 -6.273438 0.59375 -6.328125 0.6875 -6.328125 L 0.859375 -6.328125 C 0.953125 -6.328125 1 -6.375 1 -6.46875 L 1 -6.640625 C 1 -6.734375 1.050781 -6.78125 1.15625 -6.78125 L 1.328125 -6.78125 C 1.421875 -6.78125 1.46875 -6.832031 1.46875 -6.9375 L 1.46875 -7.109375 C 1.46875 -7.203125 1.519531 -7.25 1.625 -7.25 L 4.578125 -7.25 C 4.679688 -7.25 4.734375 -7.203125 4.734375 -7.109375 L 4.734375 -6.9375 C 4.734375 -6.832031 4.78125 -6.78125 4.875 -6.78125 L 5.046875 -6.78125 C 5.140625 -6.78125 5.1875 -6.734375 5.1875 -6.640625 L 5.1875 -6.46875 C 5.1875 -6.375 5.238281 -6.328125 5.34375 -6.328125 L 5.515625 -6.328125 C 5.609375 -6.328125 5.65625 -6.273438 5.65625 -6.171875 L 5.65625 -1.078125 C 5.65625 -0.984375 5.609375 -0.9375 5.515625 -0.9375 L 5.34375 -0.9375 C 5.238281 -0.9375 5.1875 -0.882812 5.1875 -0.78125 L 5.1875 -0.609375 C 5.1875 -0.515625 5.140625 -0.46875 5.046875 -0.46875 L 4.875 -0.46875 C 4.78125 -0.46875 4.734375 -0.414062 4.734375 -0.3125 L 4.734375 -0.140625 C 4.734375 -0.046875 4.679688 0 4.578125 0 L 1.625 0 C 1.519531 0 1.46875 -0.046875 1.46875 -0.140625 Z M 2.640625 -6.640625 L 2.640625 -0.609375 C 2.640625 -0.515625 2.6875 -0.46875 2.78125 -0.46875 L 2.953125 -0.46875 C 3.046875 -0.46875 3.09375 -0.515625 3.09375 -0.609375 L 3.09375 -0.78125 C 3.09375 -0.882812 3.144531 -0.9375 3.25 -0.9375 L 3.421875 -0.9375 C 3.515625 -0.9375 3.5625 -0.984375 3.5625 -1.078125 L 3.5625 -6.171875 C 3.5625 -6.273438 3.515625 -6.328125 3.421875 -6.328125 L 3.25 -6.328125 C 3.144531 -6.328125 3.09375 -6.375 3.09375 -6.46875 L 3.09375 -6.640625 C 3.09375 -6.734375 3.046875 -6.78125 2.953125 -6.78125 L 2.78125 -6.78125 C 2.6875 -6.78125 2.640625 -6.734375 2.640625 -6.640625 Z M 2.640625 -6.640625 "/></g></g></g><g fill="#00bf63" fill-opacity="1"><g transform="translate(58.595718, 44.359053)"><g><path d="M 0.859375 -0.140625 L 0.859375 -0.15625 C 0.859375 -0.257812 0.800781 -0.3125 0.6875 -0.3125 C 0.59375 -0.3125 0.546875 -0.359375 0.546875 -0.453125 L 0.546875 -1.640625 C 0.546875 -1.734375 0.597656 -1.78125 0.703125 -1.78125 C 0.804688 -1.78125 0.859375 -1.835938 0.859375 -1.953125 C 0.859375 -2.046875 0.90625 -2.09375 1 -2.09375 L 2.171875 -2.09375 C 2.273438 -2.09375 2.328125 -2.039062 2.328125 -1.9375 C 2.328125 -1.832031 2.378906 -1.78125 2.484375 -1.78125 C 2.585938 -1.78125 2.640625 -1.734375 2.640625 -1.640625 L 2.640625 -0.453125 C 2.640625 -0.359375 2.582031 -0.3125 2.46875 -0.3125 C 2.375 -0.3125 2.328125 -0.253906 2.328125 -0.140625 C 2.328125 -0.046875 2.273438 0 2.171875 0 L 1 0 C 0.90625 0 0.859375 -0.046875 0.859375 -0.140625 Z M 0.859375 -0.140625 "/></g></g></g></svg>