<svg xmlns="http://www.w3.org/2000/svg" xmlns:xlink="http://www.w3.org/1999/xlink" width="100" zoomAndPan="magnify" viewBox="0 0 75 30.000001" height="40" preserveAspectRatio="xMidYMid meet" version="1.0"><defs><g/><clipPath id="9201bb4818"><path d="M 1.210938 0 L 68 0 L 68 29.03125 L 1.210938 29.03125 Z M 1.210938 0 " clip-rule="nonzero"/></clipPath><clipPath id="447f767c5a"><path d="M 34 0 L 73.789062 0 L 73.789062 29.03125 L 34 29.03125 Z M 34 0 " clip-rule="nonzero"/></clipPath></defs><g clip-path="url(#9201bb4818)"><path stroke-linecap="butt" transform="matrix(0.192913, 0, 0, 0.192913, 5.761886, 8.45465)" fill="none" stroke-linejoin="miter" d="M 7.875922 41.157928 L 7.875922 1.510755 C 7.875922 0.964037 8.159406 0.680554 8.706124 0.680554 L 33.510918 0.680554 C 34.077885 0.680554 34.361368 0.964037 34.361368 1.510755 L 34.401866 2.482698 C 34.401866 3.049665 34.685349 3.333148 35.232067 3.333148 L 36.163512 3.333148 C 36.730479 3.333148 37.013962 3.596382 37.013962 4.163349 L 37.013962 12.465362 C 37.013962 13.032329 36.730479 13.315812 36.163512 13.315812 L 35.191569 13.315812 C 34.644851 13.315812 34.361368 13.579047 34.361368 14.146013 L 34.361368 15.117956 C 34.361368 15.664674 34.077885 15.948158 33.510918 15.948158 L 31.324046 15.948158 C 30.75708 15.948158 30.473596 16.231641 30.473596 16.778359 L 30.473596 17.750302 C 30.473596 18.317269 30.75708 18.600752 31.324046 18.600752 L 34.84734 18.600752 C 35.394057 18.600752 35.677541 18.884235 35.677541 19.430953 L 35.677541 20.402896 C 35.677541 20.969863 35.961024 21.253346 36.527991 21.253346 L 37.499934 21.253346 C 38.046652 21.253346 38.330135 21.53683 38.330135 22.083548 L 38.330135 35.872988 C 38.330135 36.419706 38.046652 36.70319 37.499934 36.70319 L 36.527991 36.70319 C 35.961024 36.70319 35.677541 36.986673 35.677541 37.533391 L 35.677541 38.505334 C 35.677541 39.072301 35.394057 39.355784 34.84734 39.355784 L 33.875397 39.355784 C 33.30843 39.355784 33.024946 39.619018 33.024946 40.185985 L 33.024946 41.157928 C 33.024946 41.724895 32.761712 42.008378 32.194745 42.008378 L 8.706124 42.008378 C 8.159406 42.008378 7.875922 41.724895 7.875922 41.157928 Z M 19.802472 4.163349 L 19.802472 14.935717 C 19.802472 15.502684 20.065707 15.765918 20.632674 15.765918 L 21.604617 15.765918 C 22.151335 15.765918 22.434818 15.502684 22.434818 14.935717 L 22.434818 13.963774 C 22.434818 13.396807 22.718301 13.133573 23.285268 13.133573 L 24.257211 13.133573 C 24.803929 13.133573 25.087412 12.850089 25.087412 12.283123 L 25.087412 6.815943 C 25.087412 6.248977 24.803929 5.985742 24.257211 5.985742 L 23.285268 5.985742 C 22.718301 5.985742 22.434818 5.702259 22.434818 5.135292 L 22.434818 4.163349 C 22.434818 3.596382 22.151335 3.333148 21.604617 3.333148 L 20.632674 3.333148 C 20.065707 3.333148 19.802472 3.596382 19.802472 4.163349 Z M 19.802472 19.572695 L 19.802472 38.464836 C 19.802472 39.031803 20.065707 39.315286 20.632674 39.315286 L 21.604617 39.315286 C 22.151335 39.315286 22.434818 39.031803 22.434818 38.464836 L 22.434818 37.492893 C 22.434818 36.925926 22.718301 36.662692 23.285268 36.662692 L 24.257211 36.662692 C 24.803929 36.662692 25.087412 36.379209 25.087412 35.832491 L 25.087412 22.225289 C 25.087412 21.658322 24.803929 21.374839 24.257211 21.374839 L 23.285268 21.374839 C 22.718301 21.374839 22.434818 21.091356 22.434818 20.544638 L 22.434818 19.572695 C 22.434818 19.005728 22.151335 18.722245 21.604617 18.722245 L 20.632674 18.722245 C 20.065707 18.722245 19.802472 19.005728 19.802472 19.572695 Z M 40.537256 41.157928 L 40.537256 1.510755 C 40.537256 0.964037 40.820739 0.680554 41.387706 0.680554 L 51.613356 0.680554 C 52.180322 0.680554 52.463806 0.964037 52.463806 1.510755 L 52.463806 38.505334 C 52.463806 39.072301 52.72704 39.355784 53.294007 39.355784 L 54.26595 39.355784 C 54.832917 39.355784 55.096151 39.072301 55.096151 38.505334 L 55.096151 33.564624 C 55.096151 33.017906 55.379635 32.734422 55.946601 32.734422 L 56.959042 32.734422 C 57.50576 32.734422 57.789243 32.450939 57.789243 31.883972 L 57.789243 30.912029 C 57.789243 30.365311 58.072727 30.081828 58.639693 30.081828 L 66.172251 30.081828 C 66.739218 30.081828 67.022701 30.365311 67.022701 30.912029 L 67.022701 38.505334 C 67.022701 39.072301 66.739218 39.355784 66.172251 39.355784 L 65.220557 39.355784 C 64.65359 39.355784 64.390356 39.619018 64.390356 40.185985 L 64.390356 41.157928 C 64.390356 41.724895 64.106872 42.008378 63.539906 42.008378 L 41.387706 42.008378 C 40.820739 42.008378 40.537256 41.724895 40.537256 41.157928 Z M 67.468175 41.157928 L 67.468175 12.100883 C 67.468175 11.554165 67.751659 11.270682 68.298376 11.270682 L 69.756291 11.270682 C 70.323258 11.270682 70.606741 10.987199 70.606741 10.420232 L 70.606741 9.468538 C 70.606741 8.901571 70.869976 8.618088 71.436942 8.618088 L 72.408885 8.618088 C 72.955603 8.618088 73.239087 8.334604 73.239087 7.787886 L 73.239087 6.815943 C 73.239087 6.248977 73.52257 5.985742 74.089537 5.985742 L 75.041231 5.985742 C 75.608197 5.985742 75.891681 5.702259 75.891681 5.135292 L 75.891681 4.163349 C 75.891681 3.596382 76.175164 3.333148 76.742131 3.333148 L 77.167356 3.333148 C 77.734323 3.333148 78.017806 3.049665 78.017806 2.482698 L 78.017806 1.510755 C 78.017806 0.964037 78.301289 0.680554 78.848007 0.680554 L 93.103171 0.680554 C 93.670137 0.680554 93.953621 0.964037 93.953621 1.510755 L 93.953621 2.482698 C 93.953621 3.049665 94.216855 3.333148 94.783822 3.333148 L 95.755765 3.333148 C 96.322732 3.333148 96.606215 3.596382 96.606215 4.163349 L 96.606215 41.157928 C 96.606215 41.724895 96.322732 42.008378 95.755765 42.008378 L 85.509866 42.008378 C 84.963148 42.008378 84.679665 41.724895 84.679665 41.157928 L 84.679665 27.125502 C 84.679665 26.558535 84.396182 26.275052 83.829215 26.275052 L 82.857272 26.275052 C 82.310554 26.275052 82.027071 26.558535 82.027071 27.125502 L 82.027071 28.097445 C 82.027071 28.664411 81.743587 28.927646 81.196869 28.927646 L 80.204678 28.927646 C 79.65796 28.927646 79.374476 29.211129 79.374476 29.757847 L 79.374476 41.157928 C 79.374476 41.724895 79.111242 42.008378 78.544275 42.008378 L 68.298376 42.008378 C 67.751659 42.008378 67.468175 41.724895 67.468175 41.157928 Z M 80.204678 23.905941 L 81.196869 23.905941 C 81.743587 23.905941 82.027071 23.622457 82.027071 23.05549 L 82.027071 22.083548 C 82.027071 21.53683 82.310554 21.253346 82.857272 21.253346 L 83.829215 21.253346 C 84.396182 21.253346 84.679665 20.969863 84.679665 20.402896 L 84.679665 4.163349 C 84.679665 3.596382 84.396182 3.333148 83.829215 3.333148 L 82.857272 3.333148 C 82.310554 3.333148 82.027071 3.596382 82.027071 4.163349 L 82.027071 5.135292 C 82.027071 5.702259 81.743587 5.985742 81.196869 5.985742 L 80.204678 5.985742 C 79.65796 5.985742 79.374476 6.248977 79.374476 6.815943 L 79.374476 23.05549 C 79.374476 23.622457 79.65796 23.905941 80.204678 23.905941 Z M 98.793087 41.157928 L 98.793087 1.510755 C 98.793087 0.964037 99.07657 0.680554 99.643537 0.680554 L 101.97215 0.680554 C 102.539117 0.680554 102.802352 0.964037 102.802352 1.510755 L 102.802352 2.482698 C 102.802352 3.049665 103.085835 3.333148 103.652802 3.333148 L 104.624745 3.333148 C 105.191711 3.333148 105.454946 3.596382 105.454946 4.163349 L 105.454946 5.135292 C 105.454946 5.702259 105.738429 5.985742 106.305396 5.985742 L 107.277339 5.985742 C 107.844306 5.985742 108.10754 6.248977 108.10754 6.815943 L 108.10754 7.787886 C 108.10754 8.334604 108.391024 8.618088 108.95799 8.618088 L 109.929933 8.618088 C 110.476651 8.618088 110.760135 8.901571 110.760135 9.468538 L 110.760135 10.420232 C 110.760135 10.987199 111.043618 11.270682 111.610585 11.270682 L 112.582528 11.270682 C 113.129246 11.270682 113.412729 11.554165 113.412729 12.100883 L 113.412729 13.072826 C 113.412729 13.639793 113.696212 13.923276 114.24293 13.923276 L 115.214873 13.923276 C 115.78184 13.923276 116.065323 14.20676 116.065323 14.753478 L 116.065323 15.725421 C 116.065323 16.292387 116.348807 16.575871 116.895525 16.575871 L 117.867467 16.575871 C 118.434434 16.575871 118.717918 16.859354 118.717918 17.406072 L 118.717918 18.378015 C 118.717918 18.944982 118.981152 19.208216 119.548119 19.208216 L 120.520062 19.208216 C 121.087029 19.208216 121.370512 18.944982 121.370512 18.378015 L 121.370512 17.406072 C 121.370512 16.859354 121.087029 16.575871 120.520062 16.575871 L 119.548119 16.575871 C 118.981152 16.575871 118.717918 16.292387 118.717918 15.725421 L 118.717918 14.753478 C 118.717918 14.20676 118.434434 13.923276 117.867467 13.923276 L 116.895525 13.923276 C 116.348807 13.923276 116.065323 13.639793 116.065323 13.072826 L 116.065323 1.510755 C 116.065323 0.964037 116.348807 0.680554 116.895525 0.680554 L 127.141423 0.680554 C 127.70839 0.680554 127.971625 0.964037 127.971625 1.510755 L 127.971625 41.157928 C 127.971625 41.724895 127.70839 42.008378 127.141423 42.008378 L 116.895525 42.008378 C 116.348807 42.008378 116.065323 41.724895 116.065323 41.157928 L 116.065323 20.058666 C 116.065323 19.4917 115.78184 19.208216 115.214873 19.208216 L 114.24293 19.208216 C 113.696212 19.208216 113.412729 18.944982 113.412729 18.378015 L 113.412729 17.406072 C 113.412729 16.859354 113.129246 16.575871 112.582528 16.575871 L 111.549838 16.575871 C 111.00312 16.575871 110.719637 16.859354 110.719637 17.406072 L 110.719637 41.157928 C 110.719637 41.724895 110.436154 42.008378 109.889436 42.008378 L 99.643537 42.008378 C 99.07657 42.008378 98.793087 41.724895 98.793087 41.157928 Z M 130.178745 41.157928 L 130.178745 1.510755 C 130.178745 0.964037 130.462228 0.680554 131.029195 0.680554 L 141.275094 0.680554 C 141.821812 0.680554 142.105295 0.964037 142.105295 1.510755 L 142.105295 17.588311 C 142.105295 18.155278 142.388778 18.418513 142.935496 18.418513 L 143.907439 18.418513 C 144.474406 18.418513 144.737641 18.155278 144.737641 17.588311 L 144.737641 16.616368 C 144.737641 16.049402 145.021124 15.765918 145.588091 15.765918 L 146.560034 15.765918 C 147.127 15.765918 147.390235 15.502684 147.390235 14.935717 L 147.390235 1.510755 C 147.390235 0.964037 147.673718 0.680554 148.240685 0.680554 L 158.486584 0.680554 C 159.033302 0.680554 159.316785 0.964037 159.316785 1.510755 L 159.316785 17.588311 C 159.316785 18.155278 159.033302 18.418513 158.486584 18.418513 L 150.893279 18.418513 C 150.326313 18.418513 150.042829 18.701996 150.042829 19.268963 L 150.042829 20.240906 C 150.042829 20.787624 150.326313 21.071107 150.893279 21.071107 L 155.833989 21.071107 C 156.380707 21.071107 156.664191 21.35459 156.664191 21.901308 L 156.664191 22.873251 C 156.664191 23.440218 156.947674 23.723701 157.514641 23.723701 L 158.486584 23.723701 C 159.033302 23.723701 159.316785 24.007185 159.316785 24.553903 L 159.316785 41.157928 C 159.316785 41.724895 159.033302 42.008378 158.486584 42.008378 L 148.240685 42.008378 C 147.673718 42.008378 147.390235 41.724895 147.390235 41.157928 L 147.390235 24.553903 C 147.390235 24.007185 147.127 23.723701 146.560034 23.723701 L 145.588091 23.723701 C 145.021124 23.723701 144.737641 23.440218 144.737641 22.873251 L 144.737641 21.901308 C 144.737641 21.35459 144.474406 21.071107 143.907439 21.071107 L 142.935496 21.071107 C 142.388778 21.071107 142.105295 21.35459 142.105295 21.901308 L 142.105295 41.157928 C 142.105295 41.724895 141.821812 42.008378 141.275094 42.008378 L 131.029195 42.008378 C 130.462228 42.008378 130.178745 41.724895 130.178745 41.157928 Z M 166.808845 41.157928 L 166.808845 40.185985 C 166.808845 39.619018 166.545611 39.355784 165.978644 39.355784 L 165.006701 39.355784 C 164.439734 39.355784 164.156251 39.072301 164.156251 38.505334 L 164.156251 37.533391 C 164.156251 36.986673 163.893016 36.70319 163.32605 36.70319 L 162.374356 36.70319 C 161.807389 36.70319 161.523905 36.419706 161.523905 35.872988 L 161.523905 6.815943 C 161.523905 6.248977 161.807389 5.985742 162.374356 5.985742 L 163.32605 5.985742 C 163.893016 5.985742 164.156251 5.702259 164.156251 5.135292 L 164.156251 4.163349 C 164.156251 3.596382 164.439734 3.333148 165.006701 3.333148 L 165.978644 3.333148 C 166.545611 3.333148 166.808845 3.049665 166.808845 2.482698 L 166.808845 1.510755 C 166.808845 0.964037 167.092329 0.680554 167.659295 0.680554 L 186.470441 0.680554 C 187.057657 0.680554 187.34114 0.964037 187.34114 1.551252 L 187.34114 2.4422 C 187.34114 3.029416 187.644873 3.333148 188.232088 3.333148 L 189.770998 3.333148 C 190.358213 3.333148 190.661946 3.616631 190.661946 4.203847 L 190.661946 11.716156 C 190.661946 12.303371 190.358213 12.586855 189.770998 12.586855 L 182.278937 12.586855 C 181.691722 12.586855 181.38799 12.303371 181.38799 11.716156 L 181.38799 10.784711 C 181.38799 10.217744 181.104506 9.93426 180.557788 9.93426 L 179.626343 9.93426 C 179.039128 9.93426 178.735395 9.650777 178.735395 9.063562 L 178.735395 4.163349 C 178.735395 3.596382 178.451912 3.333148 177.905194 3.333148 L 176.933251 3.333148 C 176.366284 3.333148 176.082801 3.596382 176.082801 4.163349 L 176.082801 5.135292 C 176.082801 5.702259 175.799318 5.985742 175.2526 5.985742 L 174.280657 5.985742 C 173.71369 5.985742 173.450456 6.248977 173.450456 6.815943 L 173.450456 35.872988 C 173.450456 36.419706 173.71369 36.70319 174.280657 36.70319 L 175.2526 36.70319 C 175.799318 36.70319 176.082801 36.986673 176.082801 37.533391 L 176.082801 38.505334 C 176.082801 39.072301 176.366284 39.355784 176.933251 39.355784 L 177.905194 39.355784 C 178.451912 39.355784 178.735395 39.072301 178.735395 38.505334 L 178.735395 30.952527 C 178.735395 30.365311 179.039128 30.081828 179.626343 30.081828 L 189.770998 30.081828 C 190.358213 30.081828 190.661946 30.365311 190.661946 30.952527 L 190.661946 38.464836 C 190.661946 39.052052 190.358213 39.355784 189.770998 39.355784 L 188.900299 39.355784 C 188.292835 39.355784 188.009351 39.639267 188.009351 40.226483 L 188.009351 41.117431 C 188.009351 41.704646 187.705619 42.008378 187.118403 42.008378 L 167.659295 42.008378 C 167.092329 42.008378 166.808845 41.724895 166.808845 41.157928 Z M 204.350142 4.163349 L 204.350142 20.68638 C 204.350142 21.233097 204.613377 21.516581 205.180343 21.516581 L 206.152286 21.516581 C 206.699004 21.516581 206.982488 21.233097 206.982488 20.68638 L 206.982488 19.714437 C 206.982488 19.14747 207.265971 18.863986 207.832938 18.863986 L 208.784632 18.863986 C 209.351599 18.863986 209.635082 18.580503 209.635082 18.033785 L 209.635082 6.815943 C 209.635082 6.248977 209.351599 5.985742 208.784632 5.985742 L 207.832938 5.985742 C 207.265971 5.985742 206.982488 5.702259 206.982488 5.135292 L 206.982488 4.163349 C 206.982488 3.596382 206.699004 3.333148 206.152286 3.333148 L 205.180343 3.333148 C 204.613377 3.333148 204.350142 3.596382 204.350142 4.163349 Z M 192.423592 41.157928 L 192.423592 1.510755 C 192.423592 0.964037 192.707075 0.680554 193.253793 0.680554 L 215.426242 0.680554 C 215.993209 0.680554 216.256443 0.964037 216.256443 1.510755 L 216.256443 2.482698 C 216.256443 3.049665 216.539927 3.333148 217.086645 3.333148 L 218.058588 3.333148 C 218.625554 3.333148 218.909038 3.596382 218.909038 4.163349 L 218.909038 5.135292 C 218.909038 5.702259 219.192521 5.985742 219.739239 5.985742 L 220.711182 5.985742 C 221.278149 5.985742 221.561632 6.248977 221.561632 6.815943 L 221.561632 18.033785 C 221.561632 18.580503 221.278149 18.863986 220.711182 18.863986 L 219.739239 18.863986 C 219.192521 18.863986 218.909038 19.14747 218.909038 19.714437 L 218.909038 20.68638 C 218.909038 21.233097 218.625554 21.516581 218.058588 21.516581 L 213.117878 21.516581 C 212.57116 21.516581 212.287676 21.779815 212.287676 22.346782 L 212.287676 23.318725 C 212.287676 23.885692 212.57116 24.169175 213.117878 24.169175 L 218.058588 24.169175 C 218.625554 24.169175 218.909038 24.43241 218.909038 24.999376 L 218.909038 25.971319 C 218.909038 26.538286 219.192521 26.821769 219.739239 26.821769 L 220.711182 26.821769 C 221.278149 26.821769 221.561632 27.085004 221.561632 27.651971 L 221.561632 41.157928 C 221.561632 41.724895 221.278149 42.008378 220.711182 42.008378 L 210.485532 42.008378 C 209.918565 42.008378 209.635082 41.724895 209.635082 41.157928 L 209.635082 27.651971 C 209.635082 27.085004 209.351599 26.821769 208.784632 26.821769 L 207.832938 26.821769 C 207.265971 26.821769 206.982488 26.538286 206.982488 25.971319 L 206.982488 24.999376 C 206.982488 24.43241 206.699004 24.169175 206.152286 24.169175 L 205.180343 24.169175 C 204.613377 24.169175 204.350142 24.43241 204.350142 24.999376 L 204.350142 41.157928 C 204.350142 41.724895 204.066659 42.008378 203.499692 42.008378 L 193.253793 42.008378 C 192.707075 42.008378 192.423592 41.724895 192.423592 41.157928 Z M 232.354249 41.157928 L 232.354249 24.553903 C 232.354249 24.007185 232.091014 23.723701 231.524047 23.723701 L 228.567721 23.723701 C 228.000754 23.723701 227.717271 23.440218 227.717271 22.873251 L 227.717271 21.901308 C 227.717271 21.35459 227.454036 21.071107 226.88707 21.071107 L 225.915127 21.071107 C 225.368409 21.071107 225.084925 20.787624 225.084925 20.240906 L 225.084925 19.268963 C 225.084925 18.701996 224.801442 18.418513 224.254724 18.418513 L 223.282781 18.418513 C 222.715814 18.418513 222.432331 18.155278 222.432331 17.588311 L 222.432331 1.510755 C 222.432331 0.964037 222.715814 0.680554 223.282781 0.680554 L 233.508431 0.680554 C 234.075398 0.680554 234.358881 0.964037 234.358881 1.510755 L 234.358881 20.240906 C 234.358881 20.787624 234.642364 21.071107 235.189082 21.071107 L 236.161025 21.071107 C 236.727992 21.071107 237.011475 21.35459 237.011475 21.901308 L 237.011475 22.873251 C 237.011475 23.440218 237.27471 23.723701 237.841677 23.723701 L 238.81362 23.723701 C 239.360338 23.723701 239.643821 23.440218 239.643821 22.873251 L 239.643821 21.901308 C 239.643821 21.35459 239.927304 21.071107 240.494271 21.071107 L 241.466214 21.071107 C 242.012932 21.071107 242.296415 20.787624 242.296415 20.240906 L 242.296415 1.510755 C 242.296415 0.964037 242.579899 0.680554 243.146865 0.680554 L 253.372515 0.680554 C 253.939482 0.680554 254.222965 0.964037 254.222965 1.510755 L 254.222965 17.588311 C 254.222965 18.155278 253.939482 18.418513 253.372515 18.418513 L 252.400572 18.418513 C 251.853854 18.418513 251.570371 18.701996 251.570371 19.268963 L 251.570371 20.240906 C 251.570371 20.787624 251.286888 21.071107 250.719921 21.071107 L 249.768227 21.071107 C 249.20126 21.071107 248.917777 21.35459 248.917777 21.901308 L 248.917777 22.873251 C 248.917777 23.440218 248.634293 23.723701 248.087575 23.723701 L 245.131249 23.723701 C 244.564282 23.723701 244.280799 24.007185 244.280799 24.553903 L 244.280799 41.157928 C 244.280799 41.724895 243.997316 42.008378 243.450598 42.008378 L 233.204699 42.008378 C 232.637732 42.008378 232.354249 41.724895 232.354249 41.157928 Z M 232.354249 41.157928 " stroke="#1e5175" stroke-width="11.589533" stroke-opacity="1" stroke-miterlimit="4"/></g><g fill="#ffffff" fill-opacity="1"><g transform="translate(6.684249, 16.556977)"><g><path d="M 0.59375 -0.15625 L 0.59375 -7.8125 C 0.59375 -7.914062 0.648438 -7.96875 0.765625 -7.96875 L 5.546875 -7.96875 C 5.648438 -7.96875 5.703125 -7.914062 5.703125 -7.8125 L 5.71875 -7.625 C 5.71875 -7.507812 5.769531 -7.453125 5.875 -7.453125 L 6.046875 -7.453125 C 6.160156 -7.453125 6.21875 -7.398438 6.21875 -7.296875 L 6.21875 -5.703125 C 6.21875 -5.585938 6.160156 -5.53125 6.046875 -5.53125 L 5.875 -5.53125 C 5.757812 -5.53125 5.703125 -5.476562 5.703125 -5.375 L 5.703125 -5.1875 C 5.703125 -5.082031 5.648438 -5.03125 5.546875 -5.03125 L 5.125 -5.03125 C 5.007812 -5.03125 4.953125 -4.972656 4.953125 -4.859375 L 4.953125 -4.671875 C 4.953125 -4.566406 5.007812 -4.515625 5.125 -4.515625 L 5.796875 -4.515625 C 5.898438 -4.515625 5.953125 -4.457031 5.953125 -4.34375 L 5.953125 -4.171875 C 5.953125 -4.054688 6.007812 -4 6.125 -4 L 6.3125 -4 C 6.414062 -4 6.46875 -3.945312 6.46875 -3.84375 L 6.46875 -1.1875 C 6.46875 -1.070312 6.414062 -1.015625 6.3125 -1.015625 L 6.125 -1.015625 C 6.007812 -1.015625 5.953125 -0.960938 5.953125 -0.859375 L 5.953125 -0.671875 C 5.953125 -0.566406 5.898438 -0.515625 5.796875 -0.515625 L 5.609375 -0.515625 C 5.503906 -0.515625 5.453125 -0.457031 5.453125 -0.34375 L 5.453125 -0.15625 C 5.453125 -0.0507812 5.394531 0 5.28125 0 L 0.765625 0 C 0.648438 0 0.59375 -0.0507812 0.59375 -0.15625 Z M 2.890625 -7.296875 L 2.890625 -5.21875 C 2.890625 -5.113281 2.945312 -5.0625 3.0625 -5.0625 L 3.25 -5.0625 C 3.351562 -5.0625 3.40625 -5.113281 3.40625 -5.21875 L 3.40625 -5.40625 C 3.40625 -5.507812 3.457031 -5.5625 3.5625 -5.5625 L 3.75 -5.5625 C 3.863281 -5.5625 3.921875 -5.617188 3.921875 -5.734375 L 3.921875 -6.78125 C 3.921875 -6.894531 3.863281 -6.953125 3.75 -6.953125 L 3.5625 -6.953125 C 3.457031 -6.953125 3.40625 -7.003906 3.40625 -7.109375 L 3.40625 -7.296875 C 3.40625 -7.398438 3.351562 -7.453125 3.25 -7.453125 L 3.0625 -7.453125 C 2.945312 -7.453125 2.890625 -7.398438 2.890625 -7.296875 Z M 2.890625 -4.328125 L 2.890625 -0.6875 C 2.890625 -0.570312 2.945312 -0.515625 3.0625 -0.515625 L 3.25 -0.515625 C 3.351562 -0.515625 3.40625 -0.570312 3.40625 -0.6875 L 3.40625 -0.875 C 3.40625 -0.976562 3.457031 -1.03125 3.5625 -1.03125 L 3.75 -1.03125 C 3.863281 -1.03125 3.921875 -1.082031 3.921875 -1.1875 L 3.921875 -3.8125 C 3.921875 -3.925781 3.863281 -3.984375 3.75 -3.984375 L 3.5625 -3.984375 C 3.457031 -3.984375 3.40625 -4.035156 3.40625 -4.140625 L 3.40625 -4.328125 C 3.40625 -4.429688 3.351562 -4.484375 3.25 -4.484375 L 3.0625 -4.484375 C 2.945312 -4.484375 2.890625 -4.429688 2.890625 -4.328125 Z M 2.890625 -4.328125 "/></g></g></g><g fill="#ffffff" fill-opacity="1"><g transform="translate(12.985375, 16.556977)"><g><path d="M 0.59375 -0.15625 L 0.59375 -7.8125 C 0.59375 -7.914062 0.648438 -7.96875 0.765625 -7.96875 L 2.734375 -7.96875 C 2.835938 -7.96875 2.890625 -7.914062 2.890625 -7.8125 L 2.890625 -0.671875 C 2.890625 -0.566406 2.945312 -0.515625 3.0625 -0.515625 L 3.25 -0.515625 C 3.351562 -0.515625 3.40625 -0.566406 3.40625 -0.671875 L 3.40625 -1.625 C 3.40625 -1.726562 3.457031 -1.78125 3.5625 -1.78125 L 3.765625 -1.78125 C 3.867188 -1.78125 3.921875 -1.835938 3.921875 -1.953125 L 3.921875 -2.140625 C 3.921875 -2.242188 3.976562 -2.296875 4.09375 -2.296875 L 5.546875 -2.296875 C 5.648438 -2.296875 5.703125 -2.242188 5.703125 -2.140625 L 5.703125 -0.671875 C 5.703125 -0.566406 5.648438 -0.515625 5.546875 -0.515625 L 5.359375 -0.515625 C 5.242188 -0.515625 5.1875 -0.457031 5.1875 -0.34375 L 5.1875 -0.15625 C 5.1875 -0.0507812 5.132812 0 5.03125 0 L 0.765625 0 C 0.648438 0 0.59375 -0.0507812 0.59375 -0.15625 Z M 0.59375 -0.15625 "/></g></g></g><g fill="#ffffff" fill-opacity="1"><g transform="translate(18.179517, 16.556977)"><g><path d="M 0.59375 -0.15625 L 0.59375 -5.765625 C 0.59375 -5.867188 0.648438 -5.921875 0.765625 -5.921875 L 1.03125 -5.921875 C 1.144531 -5.921875 1.203125 -5.976562 1.203125 -6.09375 L 1.203125 -6.28125 C 1.203125 -6.382812 1.253906 -6.4375 1.359375 -6.4375 L 1.546875 -6.4375 C 1.660156 -6.4375 1.71875 -6.488281 1.71875 -6.59375 L 1.71875 -6.78125 C 1.71875 -6.894531 1.769531 -6.953125 1.875 -6.953125 L 2.0625 -6.953125 C 2.164062 -6.953125 2.21875 -7.003906 2.21875 -7.109375 L 2.21875 -7.296875 C 2.21875 -7.398438 2.273438 -7.453125 2.390625 -7.453125 L 2.46875 -7.453125 C 2.570312 -7.453125 2.625 -7.507812 2.625 -7.625 L 2.625 -7.8125 C 2.625 -7.914062 2.679688 -7.96875 2.796875 -7.96875 L 5.546875 -7.96875 C 5.648438 -7.96875 5.703125 -7.914062 5.703125 -7.8125 L 5.703125 -7.625 C 5.703125 -7.507812 5.757812 -7.453125 5.875 -7.453125 L 6.046875 -7.453125 C 6.160156 -7.453125 6.21875 -7.398438 6.21875 -7.296875 L 6.21875 -0.15625 C 6.21875 -0.0507812 6.160156 0 6.046875 0 L 4.078125 0 C 3.972656 0 3.921875 -0.0507812 3.921875 -0.15625 L 3.921875 -2.875 C 3.921875 -2.976562 3.863281 -3.03125 3.75 -3.03125 L 3.5625 -3.03125 C 3.457031 -3.03125 3.40625 -2.976562 3.40625 -2.875 L 3.40625 -2.6875 C 3.40625 -2.570312 3.351562 -2.515625 3.25 -2.515625 L 3.0625 -2.515625 C 2.945312 -2.515625 2.890625 -2.460938 2.890625 -2.359375 L 2.890625 -0.15625 C 2.890625 -0.0507812 2.835938 0 2.734375 0 L 0.765625 0 C 0.648438 0 0.59375 -0.0507812 0.59375 -0.15625 Z M 3.0625 -3.484375 L 3.25 -3.484375 C 3.351562 -3.484375 3.40625 -3.539062 3.40625 -3.65625 L 3.40625 -3.84375 C 3.40625 -3.945312 3.457031 -4 3.5625 -4 L 3.75 -4 C 3.863281 -4 3.921875 -4.054688 3.921875 -4.171875 L 3.921875 -7.296875 C 3.921875 -7.398438 3.863281 -7.453125 3.75 -7.453125 L 3.5625 -7.453125 C 3.457031 -7.453125 3.40625 -7.398438 3.40625 -7.296875 L 3.40625 -7.109375 C 3.40625 -7.003906 3.351562 -6.953125 3.25 -6.953125 L 3.0625 -6.953125 C 2.945312 -6.953125 2.890625 -6.894531 2.890625 -6.78125 L 2.890625 -3.65625 C 2.890625 -3.539062 2.945312 -3.484375 3.0625 -3.484375 Z M 3.0625 -3.484375 "/></g></g></g><g fill="#ffffff" fill-opacity="1"><g transform="translate(24.225187, 16.556977)"><g><path d="M 0.59375 -0.15625 L 0.59375 -7.8125 C 0.59375 -7.914062 0.648438 -7.96875 0.765625 -7.96875 L 1.203125 -7.96875 C 1.316406 -7.96875 1.375 -7.914062 1.375 -7.8125 L 1.375 -7.625 C 1.375 -7.507812 1.425781 -7.453125 1.53125 -7.453125 L 1.71875 -7.453125 C 1.820312 -7.453125 1.875 -7.398438 1.875 -7.296875 L 1.875 -7.109375 C 1.875 -7.003906 1.929688 -6.953125 2.046875 -6.953125 L 2.234375 -6.953125 C 2.335938 -6.953125 2.390625 -6.894531 2.390625 -6.78125 L 2.390625 -6.59375 C 2.390625 -6.488281 2.441406 -6.4375 2.546875 -6.4375 L 2.734375 -6.4375 C 2.847656 -6.4375 2.90625 -6.382812 2.90625 -6.28125 L 2.90625 -6.09375 C 2.90625 -5.976562 2.957031 -5.921875 3.0625 -5.921875 L 3.25 -5.921875 C 3.363281 -5.921875 3.421875 -5.867188 3.421875 -5.765625 L 3.421875 -5.578125 C 3.421875 -5.472656 3.472656 -5.421875 3.578125 -5.421875 L 3.765625 -5.421875 C 3.867188 -5.421875 3.921875 -5.363281 3.921875 -5.25 L 3.921875 -5.0625 C 3.921875 -4.957031 3.976562 -4.90625 4.09375 -4.90625 L 4.28125 -4.90625 C 4.382812 -4.90625 4.4375 -4.851562 4.4375 -4.75 L 4.4375 -4.5625 C 4.4375 -4.445312 4.488281 -4.390625 4.59375 -4.390625 L 4.78125 -4.390625 C 4.894531 -4.390625 4.953125 -4.445312 4.953125 -4.5625 L 4.953125 -4.75 C 4.953125 -4.851562 4.894531 -4.90625 4.78125 -4.90625 L 4.59375 -4.90625 C 4.488281 -4.90625 4.4375 -4.957031 4.4375 -5.0625 L 4.4375 -5.25 C 4.4375 -5.363281 4.382812 -5.421875 4.28125 -5.421875 L 4.09375 -5.421875 C 3.976562 -5.421875 3.921875 -5.472656 3.921875 -5.578125 L 3.921875 -7.8125 C 3.921875 -7.914062 3.976562 -7.96875 4.09375 -7.96875 L 6.0625 -7.96875 C 6.164062 -7.96875 6.21875 -7.914062 6.21875 -7.8125 L 6.21875 -0.15625 C 6.21875 -0.0507812 6.164062 0 6.0625 0 L 4.09375 0 C 3.976562 0 3.921875 -0.0507812 3.921875 -0.15625 L 3.921875 -4.234375 C 3.921875 -4.335938 3.867188 -4.390625 3.765625 -4.390625 L 3.578125 -4.390625 C 3.472656 -4.390625 3.421875 -4.445312 3.421875 -4.5625 L 3.421875 -4.75 C 3.421875 -4.851562 3.363281 -4.90625 3.25 -4.90625 L 3.0625 -4.90625 C 2.945312 -4.90625 2.890625 -4.851562 2.890625 -4.75 L 2.890625 -0.15625 C 2.890625 -0.0507812 2.835938 0 2.734375 0 L 0.765625 0 C 0.648438 0 0.59375 -0.0507812 0.59375 -0.15625 Z M 0.59375 -0.15625 "/></g></g></g><g fill="#ffffff" fill-opacity="1"><g transform="translate(30.27937, 16.556977)"><g><path d="M 0.59375 -0.15625 L 0.59375 -7.8125 C 0.59375 -7.914062 0.648438 -7.96875 0.765625 -7.96875 L 2.734375 -7.96875 C 2.835938 -7.96875 2.890625 -7.914062 2.890625 -7.8125 L 2.890625 -4.703125 C 2.890625 -4.597656 2.945312 -4.546875 3.0625 -4.546875 L 3.25 -4.546875 C 3.351562 -4.546875 3.40625 -4.597656 3.40625 -4.703125 L 3.40625 -4.890625 C 3.40625 -5.003906 3.457031 -5.0625 3.5625 -5.0625 L 3.75 -5.0625 C 3.863281 -5.0625 3.921875 -5.113281 3.921875 -5.21875 L 3.921875 -7.8125 C 3.921875 -7.914062 3.972656 -7.96875 4.078125 -7.96875 L 6.046875 -7.96875 C 6.160156 -7.96875 6.21875 -7.914062 6.21875 -7.8125 L 6.21875 -4.703125 C 6.21875 -4.597656 6.160156 -4.546875 6.046875 -4.546875 L 4.59375 -4.546875 C 4.476562 -4.546875 4.421875 -4.492188 4.421875 -4.390625 L 4.421875 -4.203125 C 4.421875 -4.085938 4.476562 -4.03125 4.59375 -4.03125 L 5.546875 -4.03125 C 5.648438 -4.03125 5.703125 -3.976562 5.703125 -3.875 L 5.703125 -3.6875 C 5.703125 -3.582031 5.757812 -3.53125 5.875 -3.53125 L 6.046875 -3.53125 C 6.160156 -3.53125 6.21875 -3.472656 6.21875 -3.359375 L 6.21875 -0.15625 C 6.21875 -0.0507812 6.160156 0 6.046875 0 L 4.078125 0 C 3.972656 0 3.921875 -0.0507812 3.921875 -0.15625 L 3.921875 -3.359375 C 3.921875 -3.472656 3.863281 -3.53125 3.75 -3.53125 L 3.5625 -3.53125 C 3.457031 -3.53125 3.40625 -3.582031 3.40625 -3.6875 L 3.40625 -3.875 C 3.40625 -3.976562 3.351562 -4.03125 3.25 -4.03125 L 3.0625 -4.03125 C 2.945312 -4.03125 2.890625 -3.976562 2.890625 -3.875 L 2.890625 -0.15625 C 2.890625 -0.0507812 2.835938 0 2.734375 0 L 0.765625 0 C 0.648438 0 0.59375 -0.0507812 0.59375 -0.15625 Z M 0.59375 -0.15625 "/></g></g></g><g fill="#ffffff" fill-opacity="1"><g transform="translate(36.325041, 16.556977)"><g><path d="M 1.625 -0.15625 L 1.625 -0.34375 C 1.625 -0.457031 1.566406 -0.515625 1.453125 -0.515625 L 1.265625 -0.515625 C 1.160156 -0.515625 1.109375 -0.566406 1.109375 -0.671875 L 1.109375 -0.859375 C 1.109375 -0.960938 1.050781 -1.015625 0.9375 -1.015625 L 0.765625 -1.015625 C 0.648438 -1.015625 0.59375 -1.070312 0.59375 -1.1875 L 0.59375 -6.78125 C 0.59375 -6.894531 0.648438 -6.953125 0.765625 -6.953125 L 0.9375 -6.953125 C 1.050781 -6.953125 1.109375 -7.003906 1.109375 -7.109375 L 1.109375 -7.296875 C 1.109375 -7.398438 1.160156 -7.453125 1.265625 -7.453125 L 1.453125 -7.453125 C 1.566406 -7.453125 1.625 -7.507812 1.625 -7.625 L 1.625 -7.8125 C 1.625 -7.914062 1.675781 -7.96875 1.78125 -7.96875 L 5.40625 -7.96875 C 5.519531 -7.96875 5.578125 -7.910156 5.578125 -7.796875 L 5.578125 -7.625 C 5.578125 -7.507812 5.632812 -7.453125 5.75 -7.453125 L 6.046875 -7.453125 C 6.160156 -7.453125 6.21875 -7.398438 6.21875 -7.296875 L 6.21875 -5.84375 C 6.21875 -5.726562 6.160156 -5.671875 6.046875 -5.671875 L 4.59375 -5.671875 C 4.476562 -5.671875 4.421875 -5.726562 4.421875 -5.84375 L 4.421875 -6.015625 C 4.421875 -6.128906 4.367188 -6.1875 4.265625 -6.1875 L 4.09375 -6.1875 C 3.976562 -6.1875 3.921875 -6.242188 3.921875 -6.359375 L 3.921875 -7.296875 C 3.921875 -7.398438 3.863281 -7.453125 3.75 -7.453125 L 3.5625 -7.453125 C 3.457031 -7.453125 3.40625 -7.398438 3.40625 -7.296875 L 3.40625 -7.109375 C 3.40625 -7.003906 3.351562 -6.953125 3.25 -6.953125 L 3.0625 -6.953125 C 2.945312 -6.953125 2.890625 -6.894531 2.890625 -6.78125 L 2.890625 -1.1875 C 2.890625 -1.070312 2.945312 -1.015625 3.0625 -1.015625 L 3.25 -1.015625 C 3.351562 -1.015625 3.40625 -0.960938 3.40625 -0.859375 L 3.40625 -0.671875 C 3.40625 -0.566406 3.457031 -0.515625 3.5625 -0.515625 L 3.75 -0.515625 C 3.863281 -0.515625 3.921875 -0.566406 3.921875 -0.671875 L 3.921875 -2.125 C 3.921875 -2.238281 3.976562 -2.296875 4.09375 -2.296875 L 6.046875 -2.296875 C 6.160156 -2.296875 6.21875 -2.238281 6.21875 -2.125 L 6.21875 -0.6875 C 6.21875 -0.570312 6.160156 -0.515625 6.046875 -0.515625 L 5.875 -0.515625 C 5.757812 -0.515625 5.703125 -0.457031 5.703125 -0.34375 L 5.703125 -0.171875 C 5.703125 -0.0546875 5.644531 0 5.53125 0 L 1.78125 0 C 1.675781 0 1.625 -0.0507812 1.625 -0.15625 Z M 1.625 -0.15625 "/></g></g></g><g fill="#ffffff" fill-opacity="1"><g transform="translate(42.285558, 16.556977)"><g><path d="M 2.890625 -7.296875 L 2.890625 -4.109375 C 2.890625 -4.003906 2.945312 -3.953125 3.0625 -3.953125 L 3.25 -3.953125 C 3.351562 -3.953125 3.40625 -4.003906 3.40625 -4.109375 L 3.40625 -4.296875 C 3.40625 -4.410156 3.457031 -4.46875 3.5625 -4.46875 L 3.75 -4.46875 C 3.863281 -4.46875 3.921875 -4.519531 3.921875 -4.625 L 3.921875 -6.78125 C 3.921875 -6.894531 3.863281 -6.953125 3.75 -6.953125 L 3.5625 -6.953125 C 3.457031 -6.953125 3.40625 -7.003906 3.40625 -7.109375 L 3.40625 -7.296875 C 3.40625 -7.398438 3.351562 -7.453125 3.25 -7.453125 L 3.0625 -7.453125 C 2.945312 -7.453125 2.890625 -7.398438 2.890625 -7.296875 Z M 0.59375 -0.15625 L 0.59375 -7.8125 C 0.59375 -7.914062 0.648438 -7.96875 0.765625 -7.96875 L 5.03125 -7.96875 C 5.132812 -7.96875 5.1875 -7.914062 5.1875 -7.8125 L 5.1875 -7.625 C 5.1875 -7.507812 5.242188 -7.453125 5.359375 -7.453125 L 5.546875 -7.453125 C 5.648438 -7.453125 5.703125 -7.398438 5.703125 -7.296875 L 5.703125 -7.109375 C 5.703125 -7.003906 5.757812 -6.953125 5.875 -6.953125 L 6.046875 -6.953125 C 6.160156 -6.953125 6.21875 -6.894531 6.21875 -6.78125 L 6.21875 -4.625 C 6.21875 -4.519531 6.160156 -4.46875 6.046875 -4.46875 L 5.875 -4.46875 C 5.757812 -4.46875 5.703125 -4.410156 5.703125 -4.296875 L 5.703125 -4.109375 C 5.703125 -4.003906 5.648438 -3.953125 5.546875 -3.953125 L 4.59375 -3.953125 C 4.476562 -3.953125 4.421875 -3.898438 4.421875 -3.796875 L 4.421875 -3.609375 C 4.421875 -3.492188 4.476562 -3.4375 4.59375 -3.4375 L 5.546875 -3.4375 C 5.648438 -3.4375 5.703125 -3.382812 5.703125 -3.28125 L 5.703125 -3.09375 C 5.703125 -2.976562 5.757812 -2.921875 5.875 -2.921875 L 6.046875 -2.921875 C 6.160156 -2.921875 6.21875 -2.867188 6.21875 -2.765625 L 6.21875 -0.15625 C 6.21875 -0.0507812 6.160156 0 6.046875 0 L 4.078125 0 C 3.972656 0 3.921875 -0.0507812 3.921875 -0.15625 L 3.921875 -2.765625 C 3.921875 -2.867188 3.863281 -2.921875 3.75 -2.921875 L 3.5625 -2.921875 C 3.457031 -2.921875 3.40625 -2.976562 3.40625 -3.09375 L 3.40625 -3.28125 C 3.40625 -3.382812 3.351562 -3.4375 3.25 -3.4375 L 3.0625 -3.4375 C 2.945312 -3.4375 2.890625 -3.382812 2.890625 -3.28125 L 2.890625 -0.15625 C 2.890625 -0.0507812 2.835938 0 2.734375 0 L 0.765625 0 C 0.648438 0 0.59375 -0.0507812 0.59375 -0.15625 Z M 0.59375 -0.15625 "/></g></g></g><g fill="#ffffff" fill-opacity="1"><g transform="translate(48.331228, 16.556977)"><g><path d="M 2.25 -0.15625 L 2.25 -3.359375 C 2.25 -3.472656 2.195312 -3.53125 2.09375 -3.53125 L 1.53125 -3.53125 C 1.414062 -3.53125 1.359375 -3.582031 1.359375 -3.6875 L 1.359375 -3.875 C 1.359375 -3.976562 1.304688 -4.03125 1.203125 -4.03125 L 1.015625 -4.03125 C 0.898438 -4.03125 0.84375 -4.085938 0.84375 -4.203125 L 0.84375 -4.390625 C 0.84375 -4.492188 0.789062 -4.546875 0.6875 -4.546875 L 0.5 -4.546875 C 0.394531 -4.546875 0.34375 -4.597656 0.34375 -4.703125 L 0.34375 -7.8125 C 0.34375 -7.914062 0.394531 -7.96875 0.5 -7.96875 L 2.484375 -7.96875 C 2.585938 -7.96875 2.640625 -7.914062 2.640625 -7.8125 L 2.640625 -4.203125 C 2.640625 -4.085938 2.691406 -4.03125 2.796875 -4.03125 L 2.984375 -4.03125 C 3.097656 -4.03125 3.15625 -3.976562 3.15625 -3.875 L 3.15625 -3.6875 C 3.15625 -3.582031 3.207031 -3.53125 3.3125 -3.53125 L 3.5 -3.53125 C 3.601562 -3.53125 3.65625 -3.582031 3.65625 -3.6875 L 3.65625 -3.875 C 3.65625 -3.976562 3.710938 -4.03125 3.828125 -4.03125 L 4.015625 -4.03125 C 4.117188 -4.03125 4.171875 -4.085938 4.171875 -4.203125 L 4.171875 -7.8125 C 4.171875 -7.914062 4.222656 -7.96875 4.328125 -7.96875 L 6.3125 -7.96875 C 6.414062 -7.96875 6.46875 -7.914062 6.46875 -7.8125 L 6.46875 -4.703125 C 6.46875 -4.597656 6.414062 -4.546875 6.3125 -4.546875 L 6.125 -4.546875 C 6.007812 -4.546875 5.953125 -4.492188 5.953125 -4.390625 L 5.953125 -4.203125 C 5.953125 -4.085938 5.898438 -4.03125 5.796875 -4.03125 L 5.609375 -4.03125 C 5.503906 -4.03125 5.453125 -3.976562 5.453125 -3.875 L 5.453125 -3.6875 C 5.453125 -3.582031 5.394531 -3.53125 5.28125 -3.53125 L 4.71875 -3.53125 C 4.613281 -3.53125 4.5625 -3.472656 4.5625 -3.359375 L 4.5625 -0.15625 C 4.5625 -0.0507812 4.503906 0 4.390625 0 L 2.421875 0 C 2.304688 0 2.25 -0.0507812 2.25 -0.15625 Z M 2.25 -0.15625 "/></g></g></g><g clip-path="url(#447f767c5a)"><path stroke-linecap="butt" transform="matrix(0.854814, 0, 0, 0.854814, 41.890099, 12.903721)" fill="none" stroke-linejoin="miter" d="M 14.463743 11.043375 C 14.463743 11.11192 14.002202 11.148478 13.074552 11.148478 C 12.146901 11.148478 11.68536 11.11649 11.68536 11.057084 L 11.68536 8.411223 C 11.68536 8.319828 12.146901 8.278701 13.074552 8.278701 C 14.002202 8.278701 14.463743 8.30155 14.463743 8.351816 Z M 18.229183 10.910853 C 18.229183 10.988538 17.776782 11.029665 16.881119 11.029665 C 15.980886 11.029665 15.533055 10.993108 15.533055 10.929132 L 15.533055 3.704423 C 15.533055 3.635877 15.980886 3.603889 16.881119 3.603889 C 17.776782 3.603889 18.229183 3.631308 18.229183 3.686144 Z M 18.229183 2.822469 C 18.229183 2.891015 17.776782 2.923003 16.881119 2.923003 C 15.980886 2.923003 15.533055 2.895584 15.533055 2.836178 L 15.533055 0.715834 C 15.533055 0.61987 15.980886 0.569603 16.881119 0.569603 C 17.776782 0.569603 18.229183 0.601591 18.229183 0.660997 Z M 20.30383 10.134003 C 19.691489 9.457686 19.380749 8.520896 19.380749 7.323632 C 19.380749 6.126368 19.691489 5.189578 20.30383 4.513261 C 20.916171 3.836944 21.743289 3.498786 22.780612 3.498786 C 23.822506 3.498786 24.645053 3.836944 25.252825 4.513261 C 25.860596 5.189578 26.166766 6.126368 26.166766 7.323632 C 26.166766 8.520896 25.860596 9.457686 25.252825 10.134003 C 24.645053 10.810319 23.822506 11.148478 22.780612 11.148478 C 21.743289 11.148478 20.916171 10.810319 20.30383 10.134003 Z M 22.789752 5.952719 C 22.232247 5.952719 21.958065 6.405121 21.958065 7.309923 C 21.958065 8.210155 22.232247 8.662556 22.789752 8.662556 C 23.342686 8.662556 23.621439 8.210155 23.621439 7.309923 C 23.621439 6.405121 23.342686 5.952719 22.789752 5.952719 Z M 22.789752 5.952719 " stroke="#1e5175" stroke-width="3.494979" stroke-opacity="1" stroke-miterlimit="4"/></g><g fill="#00bf63" fill-opacity="1"><g transform="translate(51.626962, 22.306673)"><g><path d="M 2.625 0.03125 C 2.625 0.09375 2.226562 0.125 1.4375 0.125 C 0.644531 0.125 0.25 0.0976562 0.25 0.046875 L 0.25 -2.21875 C 0.25 -2.289062 0.644531 -2.328125 1.4375 -2.328125 C 2.226562 -2.328125 2.625 -2.304688 2.625 -2.265625 Z M 2.625 0.03125 "/></g></g></g><g fill="#00bf63" fill-opacity="1"><g transform="translate(53.372985, 22.306673)"><g/></g></g><g fill="#00bf63" fill-opacity="1"><g transform="translate(54.603714, 22.306673)"><g><path d="M 2.875 -0.078125 C 2.875 -0.00390625 2.488281 0.03125 1.71875 0.03125 C 0.945312 0.03125 0.5625 0 0.5625 -0.0625 L 0.5625 -6.234375 C 0.5625 -6.296875 0.945312 -6.328125 1.71875 -6.328125 C 2.488281 -6.328125 2.875 -6.300781 2.875 -6.25 Z M 2.875 -7 C 2.875 -6.9375 2.488281 -6.90625 1.71875 -6.90625 C 0.945312 -6.90625 0.5625 -6.929688 0.5625 -6.984375 L 0.5625 -8.796875 C 0.5625 -8.878906 0.945312 -8.921875 1.71875 -8.921875 C 2.488281 -8.921875 2.875 -8.894531 2.875 -8.84375 Z M 2.875 -7 "/></g></g></g><g fill="#00bf63" fill-opacity="1"><g transform="translate(56.902751, 22.306673)"><g/></g></g><g fill="#00bf63" fill-opacity="1"><g transform="translate(58.13348, 22.306673)"><g><path d="M 1.109375 -0.734375 C 0.585938 -1.316406 0.328125 -2.117188 0.328125 -3.140625 C 0.328125 -4.160156 0.585938 -4.960938 1.109375 -5.546875 C 1.640625 -6.128906 2.347656 -6.421875 3.234375 -6.421875 C 4.117188 -6.421875 4.820312 -6.128906 5.34375 -5.546875 C 5.863281 -4.960938 6.125 -4.160156 6.125 -3.140625 C 6.125 -2.117188 5.863281 -1.316406 5.34375 -0.734375 C 4.820312 -0.160156 4.117188 0.125 3.234375 0.125 C 2.347656 0.125 1.640625 -0.160156 1.109375 -0.734375 Z M 3.234375 -4.3125 C 2.765625 -4.3125 2.53125 -3.925781 2.53125 -3.15625 C 2.53125 -2.382812 2.765625 -2 3.234375 -2 C 3.710938 -2 3.953125 -2.382812 3.953125 -3.15625 C 3.953125 -3.925781 3.710938 -4.3125 3.234375 -4.3125 Z M 3.234375 -4.3125 "/></g></g></g></svg>